<svg height="512pt" viewBox="0 0 512.00037 512" width="512pt" xmlns="http://www.w3.org/2000/svg"><path d="m456.835938.00390625-146.875-.00390625c-26.007813 0-60.785157 14.40625-79.171876 32.792969l-214.660156 214.65625c-21.507812 21.511719-21.503906 56.507812 0 78.015625l170.40625 170.402344c10.390625 10.390624 24.242188 16.109374 39.007813 16.109374 14.769531 0 28.621093-5.71875 39.007812-16.109374l214.652344-214.652344c18.390625-18.390625 32.796875-53.164063 32.796875-79.175782v-146.875c0-30.414062-24.746094-55.16015575-55.164062-55.16015575zm0 0" fill="#ff4949"/><path d="m495.820312 16.175781-394.492187 394.484375 85.207031 85.210938c10.390625 10.386718 24.242188 16.105468 39.007813 16.105468 14.769531 0 28.621093-5.71875 39.007812-16.105468l214.652344-214.65625c18.390625-18.390625 32.796875-53.164063 32.796875-79.171875v-146.878907c0-15.207031-6.1875-29-16.179688-38.988281zm0 0" fill="#ff2323"/><path d="m210.566406 165.105469c-12.550781-12.546875-32.894531-12.546875-45.441406 0s-12.546875 32.890625 0 45.441406c12.546875 12.546875 32.890625 12.546875 45.441406 0 12.546875-12.550781 12.546875-32.894531 0-45.441406zm0 0" fill="#fef4f5"/><path d="m221.929688 335.511719c-12.546876 12.550781-32.894532 12.550781-45.441407 0-12.550781-12.550781-12.550781-32.894531 0-45.441407l113.605469-113.601562c12.546875-12.550781 32.890625-12.550781 45.441406 0 12.546875 12.542969 12.546875 32.890625 0 45.4375zm0 0" fill="#fef4f5"/><g fill="#d5eded"><path d="m346.886719 301.425781c-12.546875-12.546875-32.890625-12.546875-45.4375 0s-12.546875 32.890625 0 45.441407c12.546875 12.546874 32.890625 12.546874 45.4375 0 12.550781-12.550782 12.550781-32.894532 0-45.441407zm0 0"/><path d="m335.535156 176.46875c-.003906-.003906-.007812-.003906-.007812-.007812l-159.042969 159.042968c0 .003906 0 .003906.003906.007813 12.546875 12.550781 32.894531 12.550781 45.441407 0l113.605468-113.605469c12.546875-12.546875 12.546875-32.894531 0-45.4375zm0 0"/></g></svg>