<svg height="512pt" viewBox="0 0 512 512" width="512pt" xmlns="http://www.w3.org/2000/svg"><path d="m456.832031 0h-401.667969c-30.417968 0-55.164062 24.746094-55.164062 55.164062v401.667969c0 30.421875 24.746094 55.167969 55.164062 55.167969h401.667969c30.417969 0 55.167969-24.746094 55.167969-55.167969v-401.667969c-.003906-30.417968-24.75-55.164062-55.167969-55.164062zm0 0" fill="#d55f05"/><path d="m456.832031 0h-200.832031v512h200.832031c30.417969 0 55.164063-24.746094 55.164063-55.167969v-401.667969c0-30.417968-24.746094-55.164062-55.164063-55.164062zm0 0" fill="#a24603"/><path d="m416.664062 431.664062h-80.332031c-8.28125 0-15-6.714843-15-15 0-8.28125 6.71875-15 15-15h80.332031c8.285157 0 15 6.71875 15 15 0 8.285157-6.714843 15-15 15zm0 0" fill="#d5eded"/><path d="m336.332031 0h-160.667969c-8.28125 0-15 6.714844-15 15v120.5c0 30.417969 24.75 55.164062 55.167969 55.164062h80.332031c30.421876 0 55.167969-24.746093 55.167969-55.164062v-120.5c0-8.285156-6.714843-15-15-15zm0 0" fill="#ff9f00"/><path d="m336.332031 351.332031c-8.285156 0-15-6.714843-15-15v-40.167969c0-8.28125 6.714844-15 15-15 8.285157 0 15 6.71875 15 15v40.167969c0 8.285157-6.714843 15-15 15zm0 0" fill="#d5eded"/><path d="m416.664062 351.332031c-8.28125 0-15-6.714843-15-15v-40.167969c0-8.28125 6.71875-15 15-15 8.285157 0 15 6.71875 15 15v40.167969c0 8.285157-6.714843 15-15 15zm0 0" fill="#d5eded"/><path d="m336.332031 0h-80.332031v190.664062h40.164062c30.421876 0 55.167969-24.746093 55.167969-55.164062v-120.5c0-8.285156-6.714843-15-15-15zm0 0" fill="#e47500"/></svg>