<svg height="512pt" viewBox="0 0 512 512" width="512pt" xmlns="http://www.w3.org/2000/svg"><path d="m510.855469 266.945312c-2.320313-5.605468-7.789063-9.257812-13.855469-9.257812h-65.335938v-202.519531c0-30.421875-24.746093-55.167969-55.164062-55.167969h-241c-30.417969 0-55.167969 24.746094-55.167969 55.167969v202.519531h-65.332031c-6.066406 0-11.535156 3.65625-13.859375 9.261719-2.320313 5.605469-1.035156 12.058593 3.253906 16.347656l212.59375 212.597656c10.386719 10.386719 24.242188 16.105469 39.007813 16.105469h.003906c14.765625 0 28.621094-5.722656 39.003906-16.109375l212.601563-212.597656c4.289062-4.289063 5.574219-10.742188 3.25-16.347657zm0 0" fill="#ff9f00"/><path d="m510.855469 266.945312c-2.320313-5.605468-7.789063-9.257812-13.855469-9.257812h-65.335938v-202.519531c0-30.421875-24.746093-55.167969-55.164062-55.167969h-120.5v512c14.765625 0 28.621094-5.722656 39.003906-16.109375l212.601563-212.597656c4.289062-4.289063 5.574219-10.742188 3.25-16.347657zm0 0" fill="#e47500"/><path d="m210.550781 133.296875c-12.546875-12.550781-32.890625-12.550781-45.441406-.003906-12.546875 12.550781-12.546875 32.894531.003906 45.441406 12.546875 12.550781 32.890625 12.550781 45.441407.003906 12.546874-12.550781 12.546874-32.894531-.003907-45.441406zm0 0" fill="#fef4f5"/><path d="m221.917969 303.703125c-12.550781 12.550781-32.898438 12.550781-45.445313 0-12.550781-12.546875-12.550781-32.894531 0-45.441406l113.609375-113.605469c12.546875-12.554688 32.890625-12.550781 45.445313 0 12.546875 12.542969 12.546875 32.890625 0 45.441406zm0 0" fill="#fef4f5"/><g fill="#d5eded"><path d="m346.878906 269.617188c-12.546875-12.546876-32.890625-12.546876-45.441406 0-12.546875 12.550781-12.546875 32.894531 0 45.441406 12.550781 12.550781 32.894531 12.550781 45.441406 0 12.550782-12.546875 12.550782-32.890625 0-45.441406zm0 0"/><path d="m335.527344 144.652344c-12.554688-12.546875-32.894532-12.550782-45.445313 0l-34.082031 34.082031v90.886719l79.527344-79.523438c12.546875-12.550781 12.546875-32.898437 0-45.445312zm0 0"/></g></svg>