<svg height="512pt" viewBox="0 -20 512 512" width="512pt" xmlns="http://www.w3.org/2000/svg"><path d="m456.835938 0h-401.667969c-30.421875 0-55.167969 24.746094-55.167969 55.164062v361.503907c0 30.417969 24.746094 55.167969 55.164062 55.167969h401.671876c30.417968 0 55.164062-24.75 55.164062-55.167969v-361.5c0-30.421875-24.746094-55.167969-55.164062-55.167969zm0 0" fill="#fef4f5"/><path d="m456.835938 0h-200.824219v471.835938h200.824219c30.417968 0 55.164062-24.75 55.164062-55.167969v-361.5c0-30.421875-24.746094-55.167969-55.164062-55.167969zm0 0" fill="#d5eded"/><path d="m416.664062 391.5h-25c-8.28125 0-15-6.714844-15-15s6.71875-15 15-15h10v-10c0-8.285156 6.71875-15 15-15 8.285157 0 15 6.714844 15 15v25c0 8.285156-6.714843 15-15 15zm0 0" fill="#008186"/><path d="m337.398438 391.5h-54.265626c-8.285156 0-15-6.714844-15-15s6.714844-15 15-15h54.265626c8.285156 0 15 6.714844 15 15s-6.714844 15-15 15zm0 0" fill="#008186"/><g fill="#00acb3"><path d="m228.867188 391.5h-54.265626c-8.285156 0-15-6.714844-15-15s6.714844-15 15-15h54.265626c8.285156 0 15 6.714844 15 15s-6.71875 15-15 15zm0 0"/><path d="m120.335938 391.5h-25c-8.285157 0-15-6.714844-15-15v-25c0-8.285156 6.714843-15 15-15 8.28125 0 15 6.714844 15 15v10h10c8.28125 0 15 6.714844 15 15s-6.71875 15-15 15zm0 0"/><path d="m95.335938 320.265625c-8.285157 0-15-6.714844-15-15v-46.230469c0-8.285156 6.714843-15 15-15 8.28125 0 15 6.714844 15 15v46.230469c0 8.285156-6.71875 15-15 15zm0-92.464844c-8.285157 0-15-6.714843-15-15v-46.234375c0-8.285156 6.714843-15 15-15 8.28125 0 15 6.714844 15 15v46.234375c0 8.285157-6.71875 15-15 15zm0 0"/><path d="m95.335938 135.335938c-8.285157 0-15-6.71875-15-15v-25c0-8.285157 6.714843-15 15-15h25c8.28125 0 15 6.714843 15 15 0 8.28125-6.71875 15-15 15h-10v10c0 8.28125-6.71875 15-15 15zm0 0"/></g><path d="m337.398438 110.335938h-54.265626c-8.285156 0-15-6.71875-15-15 0-8.285157 6.714844-15 15-15h54.265626c8.285156 0 15 6.714843 15 15 0 8.28125-6.714844 15-15 15zm0 0" fill="#008186"/><path d="m228.867188 110.335938h-54.265626c-8.285156 0-15-6.71875-15-15 0-8.285157 6.714844-15 15-15h54.265626c8.285156 0 15 6.714843 15 15 0 8.28125-6.71875 15-15 15zm0 0" fill="#00acb3"/><path d="m416.664062 135.335938c-8.28125 0-15-6.71875-15-15v-10h-10c-8.28125 0-15-6.71875-15-15 0-8.285157 6.71875-15 15-15h25c8.285157 0 15 6.714843 15 15v25c0 8.28125-6.714843 15-15 15zm0 0" fill="#008186"/><path d="m416.664062 320.265625c-8.28125 0-15-6.714844-15-15v-46.230469c0-8.285156 6.71875-15 15-15 8.285157 0 15 6.714844 15 15v46.230469c0 8.285156-6.714843 15-15 15zm0-92.464844c-8.28125 0-15-6.714843-15-15v-46.234375c0-8.285156 6.71875-15 15-15 8.285157 0 15 6.714844 15 15v46.234375c0 8.285157-6.714843 15-15 15zm0 0" fill="#008186"/><path d="m335.523438 201.835938-113.601563 113.605468c-12.554687 12.550782-32.898437 12.550782-45.449219 0-12.550781-12.546875-12.550781-32.894531 0-45.445312l113.609375-113.605469c12.546875-12.550781 32.894531-12.546875 45.441407 0 12.550781 12.550781 12.550781 32.894531 0 45.445313zm0 0" fill="#ff4949"/><path d="m210.554688 145.03125c-12.550782-12.546875-32.894532-12.546875-45.441407 0s-12.546875 32.894531 0 45.441406 32.890625 12.546875 45.441407 0c12.546874-12.546875 12.546874-32.894531 0-45.441406zm0 0" fill="#ff4949"/><path d="m346.878906 281.355469c-12.546875-12.546875-32.890625-12.546875-45.441406 0-12.546875 12.550781-12.546875 32.894531 0 45.441406 12.550781 12.550781 32.894531 12.550781 45.441406 0 12.550782-12.546875 12.550782-32.890625 0-45.441406zm0 0" fill="#ff2323"/><path d="m335.523438 156.390625c-12.546876-12.546875-32.894532-12.550781-45.441407 0l-34.082031 34.082031v90.890625l79.523438-79.527343c12.550781-12.550782 12.550781-32.894532 0-45.445313zm0 0" fill="#ff2323"/></svg>