<svg height="512pt" viewBox="0 -12 512.00013 512" width="512pt" xmlns="http://www.w3.org/2000/svg"><path d="m508.679688 234.796875-46.410157-57.613281 3.6875-73.886719c.351563-7.046875-4.253906-13.382813-11.0625-15.226563l-71.410156-19.328124-40.453125-61.941407c-3.855469-5.90625-11.304688-8.328125-17.898438-5.816406l-69.132812 26.335937-69.132812-26.335937c-6.59375-2.511719-14.042969-.089844-17.898438 5.816406l-40.449219 61.941407-71.410156 19.328124c-6.808594 1.84375-11.414063 8.179688-11.0625 15.226563l3.683594 73.886719-46.410157 57.613281c-4.425781 5.492187-4.425781 13.324219 0 18.816406l46.410157 57.613281-3.683594 73.886719c-.351563 7.046875 4.253906 13.382813 11.0625 15.226563l71.40625 19.328125 40.453125 61.941406c3.855469 5.90625 11.304688 8.328125 17.898438 5.816406l69.132812-26.335937 69.132812 26.335937c1.746094.664063 3.554688.984375 5.335938.984375 4.949219 0 9.726562-2.457031 12.5625-6.800781l40.449219-61.941406 71.410156-19.324219c6.808594-1.847656 11.414063-8.183594 11.0625-15.230469l-3.683594-73.886719 46.410157-57.613281c4.425781-5.492187 4.425781-13.324219 0-18.816406zm0 0" fill="#ff4949"/><path d="m508.679688 234.796875-46.410157-57.613281 3.6875-73.886719c.351563-7.046875-4.253906-13.382813-11.0625-15.226563l-71.410156-19.328124-40.453125-61.941407c-3.855469-5.90625-11.304688-8.328125-17.898438-5.816406l-69.132812 26.335937-1.867188-.710937v435.191406l1.867188-.710937 69.132812 26.335937c1.746094.664063 3.554688.984375 5.335938.984375 4.949219 0 9.726562-2.457031 12.5625-6.800781l40.449219-61.941406 71.410156-19.324219c6.808594-1.847656 11.414063-8.183594 11.0625-15.230469l-3.683594-73.886719 46.410157-57.613281c4.425781-5.492187 4.425781-13.324219 0-18.816406zm0 0" fill="#ff2323"/><path d="m320.894531 160.890625c-26.527343-36.886719-52.632812-66.0625-53.730469-67.285156-4.148437-4.625-10.722656-6.214844-16.527343-3.988281-5.804688 2.21875-9.636719 7.792968-9.636719 14.007812v141.386719c0 9.445312-7.6875 17.132812-17.132812 17.132812-9.445313 0-17.132813-7.6875-17.132813-17.132812v-58.78125c0-6.597657-4.3125-12.417969-10.621094-14.34375-6.3125-1.925781-13.140625.496093-16.824219 5.96875-29.421874 43.71875-43.726562 76.917969-43.726562 101.496093 0 66.410157 54.027344 120.4375 120.4375 120.4375s120.4375-54.027343 120.4375-120.4375c0-27.355468-18.6875-67.214843-55.542969-118.460937zm0 0" fill="#ff9f00"/><path d="m320.894531 160.890625c-26.527343-36.886719-52.632812-66.0625-53.730469-67.285156-3.332031-3.714844-8.226562-5.464844-13.03125-4.859375v311.019531c.625.007813 1.246094.023437 1.867188.023437 66.410156 0 120.4375-54.027343 120.4375-120.4375 0-27.355468-18.6875-67.214843-55.542969-118.460937zm0 0" fill="#e47500"/></svg>