<svg height="512pt" viewBox="0 0 512.00055 512" width="512pt" xmlns="http://www.w3.org/2000/svg"><path d="m31.066406 127.46875h449.867188v273.128906h-449.867188zm0 0" fill="#fef4f5"/><path d="m256 127.46875h224.933594v273.128906h-224.933594zm0 0" fill="#d5eded"/><path d="m480.933594 415.597656h-449.867188c-8.28125 0-15-6.714844-15-15v-273.128906c0-8.285156 6.71875-15 15-15h449.867188c8.285156 0 15 6.714844 15 15v273.128906c0 8.285156-6.714844 15-15 15zm-434.867188-30h419.867188v-243.128906h-419.867188zm0 0" fill="#00acb3"/><path d="m480.933594 112.46875h-224.933594v30h209.933594v243.128906h-209.933594v30h224.933594c8.285156 0 15-6.714844 15-15v-273.128906c0-8.285156-6.714844-15-15-15zm0 0" fill="#008186"/><path d="m497 385.597656h-482c-8.285156 0-15 6.71875-15 15v16.066406c0 52.566407 42.765625 95.335938 95.332031 95.335938h321.335938c52.566406 0 95.332031-42.769531 95.332031-95.335938v-16.066406c0-8.28125-6.714844-15-15-15zm0 0" fill="#a8ebfa"/><path d="m497 385.597656h-241v126.402344h160.667969c52.566406 0 95.332031-42.769531 95.332031-95.335938v-16.066406c0-8.28125-6.714844-15-15-15zm0 0" fill="#76e2f8"/><path d="m511.421875 123.347656-21.097656-73.84375c-7.933594-27.757812-36.757813-49.503906-65.625-49.503906h-337.398438c-28.871093 0-57.695312 21.746094-65.625 49.503906l-21.097656 73.84375c-1.292969 4.523438-.386719 9.394532 2.445313 13.152344 2.835937 3.757812 7.269531 5.96875 11.976562 5.96875h482c4.707031 0 9.140625-2.210938 11.976562-5.96875 2.832032-3.757812 3.738282-8.628906 2.445313-13.152344zm0 0" fill="#ff4949"/><path d="m508.976562 136.5c2.832032-3.757812 3.738282-8.628906 2.445313-13.152344l-21.097656-73.84375c-7.933594-27.757812-36.757813-49.503906-65.625-49.503906h-168.699219v142.46875h241c4.707031 0 9.140625-2.210938 11.976562-5.96875zm0 0" fill="#ff2323"/><path d="m296.167969 431.667969h-80.335938c-8.28125 0-15-6.71875-15-15 0-8.285157 6.71875-15 15-15h80.335938c8.28125 0 15 6.714843 15 15 0 8.28125-6.71875 15-15 15zm0 0" fill="#00acb3"/><path d="m207.800781 112.46875h-96.402343c-8.28125 0-15 6.714844-15 15v48.195312c0 34.851563 28.355468 63.203126 63.203124 63.203126 34.847657 0 63.199219-28.351563 63.199219-63.203126v-48.195312c0-8.285156-6.714843-15-15-15zm0 0" fill="#ff4949"/><path d="m400.601562 112.46875h-96.398437c-8.285156 0-15 6.714844-15 15v48.195312c0 34.851563 28.351563 63.203126 63.199219 63.203126s63.199218-28.351563 63.199218-63.203126v-48.195312c0-8.285156-6.71875-15-15-15zm0 0" fill="#ff2323"/><path d="m111.398438 112.46875h-96.398438c-8.285156 0-15 6.714844-15 15v48.195312c0 34.851563 28.351562 63.203126 63.199219 63.203126 34.851562 0 63.199219-28.351563 63.199219-63.203126v-48.195312c0-8.285156-6.714844-15-15-15zm0 0" fill="#ff9f00"/><path d="m304.199219 112.46875h-96.398438c-8.285156 0-15 6.714844-15 15v48.195312c0 34.851563 28.351563 63.203126 63.199219 63.203126s63.199219-28.351563 63.199219-63.203126v-48.195312c0-8.285156-6.714844-15-15-15zm0 0" fill="#ff9f00"/><path d="m497 112.46875h-96.398438c-8.285156 0-15 6.714844-15 15v48.195312c0 34.851563 28.351563 63.203126 63.199219 63.203126 34.847657 0 63.199219-28.351563 63.199219-63.203126v-48.195312c0-8.285156-6.714844-15-15-15zm0 0" fill="#e47500"/><path d="m304.199219 112.46875h-48.199219v126.398438c34.851562 0 63.203125-28.351563 63.203125-63.203126v-48.195312c-.003906-8.285156-6.71875-15-15.003906-15zm0 0" fill="#e47500"/><path d="m296.167969 401.667969h-40.167969v30h40.167969c8.285156 0 15-6.71875 15-15 0-8.285157-6.71875-15-15-15zm0 0" fill="#008186"/></svg>