<svg height="512pt" viewBox="0 0 512 512" width="512pt" xmlns="http://www.w3.org/2000/svg"><path d="m352.398438 417.730469h-192.796876c-25.988281 0-47.132812 21.148437-47.132812 47.136719 0 25.988281 21.144531 47.132812 47.132812 47.132812h192.796876c25.992187 0 47.132812-21.144531 47.132812-47.132812 0-25.988282-21.140625-47.136719-47.132812-47.136719zm0 0" fill="#00acb3"/><path d="m352.398438 512c25.992187 0 47.132812-21.144531 47.132812-47.132812 0-25.988282-21.140625-47.136719-47.132812-47.136719h-96.386719v94.269531zm0 0" fill="#008186"/><path d="m304.199219 353.464844h-96.398438c-8.28125 0-15 6.714844-15 15v64.269531c0 8.28125 6.71875 15 15 15h96.398438c8.285156 0 15-6.71875 15-15v-64.269531c0-8.285156-6.714844-15-15-15zm0 0" fill="#a8ebfa"/><path d="m304.199219 353.464844h-48.1875v94.269531h48.1875c8.285156 0 15-6.71875 15-15v-64.269531c0-8.285156-6.714844-15-15-15zm0 0" fill="#76e2f8"/><path d="m15 55.164062c0-22.089843 18.074219-40.164062 40.164062-40.164062h401.671876c22.089843 0 40.164062 18.074219 40.164062 40.164062v273.136719c0 22.089844-18.074219 40.167969-40.164062 40.167969h-401.671876c-22.089843 0-40.164062-18.078125-40.164062-40.167969zm0 0" fill="#fef4f5"/><path d="m456.835938 15h-200.824219v353.46875h200.824219c22.089843 0 40.164062-18.078125 40.164062-40.167969v-273.136719c0-22.089843-18.074219-40.164062-40.164062-40.164062zm0 0" fill="#d5eded"/><path d="m456.835938 383.46875h-401.671876c-30.417968 0-55.164062-24.75-55.164062-55.167969v-273.136719c0-30.417968 24.746094-55.164062 55.164062-55.164062h401.671876c30.417968 0 55.164062 24.746094 55.164062 55.164062v273.136719c0 30.417969-24.746094 55.167969-55.164062 55.167969zm-401.671876-353.46875c-13.875 0-25.164062 11.289062-25.164062 25.164062v273.136719c0 13.875 11.289062 25.167969 25.164062 25.167969h401.671876c13.875 0 25.164062-11.292969 25.164062-25.167969v-273.136719c0-13.875-11.289062-25.164062-25.164062-25.164062zm0 0" fill="#00acb3"/><path d="m195.738281 219.574219c-25.988281 0-47.132812 21.148437-47.132812 47.136719 0 25.988281 21.144531 47.132812 47.132812 47.132812s47.132813-21.144531 47.132813-47.132812c0-25.988282-21.140625-47.136719-47.132813-47.136719zm0 0" fill="#00acb3"/><path d="m324.273438 219.574219c-25.988282 0-47.132813 21.148437-47.132813 47.136719 0 25.988281 21.144531 47.132812 47.132813 47.132812 25.988281 0 47.132812-21.144531 47.132812-47.132812 0-25.988282-21.144531-47.136719-47.132812-47.136719zm0 0" fill="#008186"/><path d="m158.253906 174.601562c-8.285156 0-15-6.71875-15-15v-59.980468h-14.992187c-8.285157 0-15-6.714844-15-15s6.714843-15 15-15h29.992187c8.28125 0 15 6.714844 15 15v74.980468c0 8.28125-6.71875 15-15 15zm0 0" fill="#a8ebfa"/><path d="m389.886719 116.0625c-8.160157-10.453125-21.148438-16.449219-35.625-16.449219h-196.007813c-8.285156 0-15 6.714844-15 15v82.476563c0 28.941406 23.542969 52.484375 52.484375 52.484375h128.53125c27.589844 0 54.441407-20.964844 61.136719-47.730469l11.804688-47.226562c3.511718-14.046876.839843-28.097657-7.324219-38.554688zm0 0" fill="#ff9f00"/><path d="m456.835938 0h-200.824219v30h200.824219c13.875 0 25.164062 11.289062 25.164062 25.164062v273.136719c0 13.875-11.289062 25.167969-25.164062 25.167969h-200.824219v30h200.824219c30.417968 0 55.164062-24.75 55.164062-55.167969v-273.136719c0-30.417968-24.746094-55.164062-55.164062-55.164062zm0 0" fill="#008186"/><path d="m389.886719 116.0625c-8.160157-10.453125-21.148438-16.449219-35.625-16.449219h-98.25v149.960938h68.261719c27.585937 0 54.441406-20.964844 61.132812-47.730469l11.804688-47.226562c3.511718-14.046876.839843-28.097657-7.324219-38.554688zm0 0" fill="#e47500"/></svg>