<svg height="512pt" viewBox="-80 0 512 512" width="512pt" xmlns="http://www.w3.org/2000/svg"><path d="m336.332031 55.167969c0-22.09375-18.074219-40.167969-40.164062-40.167969h-241c-22.09375 0-40.167969 18.074219-40.167969 40.167969v313.300781h321.332031zm0 0" fill="#fef4f5"/><path d="m336.332031 55.167969c0-22.09375-18.074219-40.167969-40.164062-40.167969h-120.503907v353.46875h160.667969zm0 0" fill="#d5eded"/><path d="m296.167969 0h-241c-30.421875 0-55.167969 24.746094-55.167969 55.167969v401.667969c0 30.417968 24.746094 55.164062 55.167969 55.164062h241c30.417969 0 55.164062-24.746094 55.164062-55.164062v-401.667969c0-30.421875-24.746093-55.167969-55.164062-55.167969zm-266.167969 55.167969c0-13.878907 11.289062-25.167969 25.167969-25.167969h241c13.875 0 25.164062 11.289062 25.164062 25.167969v298.300781h-291.332031zm0 0" fill="#00acb3"/><path d="m296.167969 0h-120.503907v30h120.503907c13.875 0 25.164062 11.289062 25.164062 25.167969v298.300781h-145.667969v158.53125h120.503907c30.417969 0 55.164062-24.746094 55.164062-55.164062v-401.667969c0-30.421875-24.746093-55.167969-55.164062-55.167969zm0 0" fill="#008186"/><path d="m264.738281 100.796875c-2.8125-2.816406-6.628906-4.394531-10.605469-4.394531h-64.269531c-3.976562 0-7.792969 1.582031-10.601562 4.394531l-96.402344 96.398437c-2.8125 2.8125-4.394531 6.628907-4.394531 10.605469 0 3.980469 1.582031 7.796875 4.394531 10.605469l64.269531 64.265625c2.929688 2.929687 6.765625 4.394531 10.605469 4.394531 3.835937 0 7.675781-1.464844 10.605469-4.394531l96.398437-96.398437c2.8125-2.8125 4.394531-6.628907 4.394531-10.605469v-64.265625c0-3.980469-1.582031-7.796875-4.394531-10.605469zm0 0" fill="#ff4949"/><path d="m175.667969 393.636719c-21.5625 0-39.101563 17.539062-39.101563 39.097656 0 21.5625 17.539063 39.101563 39.101563 39.101563 21.558593 0 39.101562-17.539063 39.101562-39.101563 0-21.558594-17.542969-39.097656-39.101562-39.097656zm0 0" fill="#a8ebfa"/><path d="m264.738281 100.796875-149.746093 149.742187 32.136718 32.132813c2.929688 2.929687 6.765625 4.394531 10.605469 4.394531 3.835937 0 7.675781-1.464844 10.605469-4.394531l96.398437-96.398437c2.8125-2.8125 4.394531-6.628907 4.394531-10.605469v-64.265625c0-3.980469-1.582031-7.796875-4.394531-10.605469zm0 0" fill="#ff2323"/><path d="m175.667969 393.636719c-.003907 0-.003907 0-.003907 0v78.199219h.003907c21.558593 0 39.101562-17.539063 39.101562-39.101563 0-21.558594-17.542969-39.097656-39.101562-39.097656zm0 0" fill="#76e2f8"/></svg>