<svg height="512pt" viewBox="0 -60 512.001 512" width="512pt" xmlns="http://www.w3.org/2000/svg"><path d="m456.832031 0h-401.664062c-30.417969 0-55.167969 24.75-55.167969 55.167969v281.167969c0 30.417968 24.75 55.164062 55.167969 55.164062h401.664062c30.421875 0 55.167969-24.746094 55.167969-55.164062v-281.167969c0-30.417969-24.746094-55.167969-55.167969-55.167969zm0 0" fill="#00acb3"/><path d="m456.832031 0h-200.832031v391.5h200.832031c30.421875 0 55.167969-24.746094 55.167969-55.164062v-281.167969c0-30.417969-24.746094-55.167969-55.167969-55.167969zm0 0" fill="#008186"/><path d="m497 126.398438h-482c-8.285156 0-15-6.714844-15-15 0-8.28125 6.714844-15 15-15h482c8.285156 0 15 6.71875 15 15 0 8.285156-6.714844 15-15 15zm0 0" fill="#663325"/><path d="m416.667969 230.832031h-128.535157c-8.285156 0-15-6.714843-15-15 0-8.28125 6.714844-15 15-15h128.535157c8.28125 0 15 6.71875 15 15 0 8.285157-6.714844 15-15 15zm0 0" fill="#d5eded"/><path d="m416.667969 311.167969h-80.332031c-8.285157 0-15-6.714844-15-15 0-8.285157 6.714843-15 15-15h80.332031c8.285156 0 15 6.714843 15 15 0 8.285156-6.714844 15-15 15zm0 0" fill="#d5eded"/><path d="m218.40625 237.359375-32.132812-32.132813c-2.8125-2.8125-6.628907-4.394531-10.605469-4.394531h-80.332031c-8.285157 0-15 6.71875-15 15v80.335938c0 8.28125 6.714843 15 15 15h112.464843c8.28125 0 15-6.71875 15-15v-48.199219c0-3.980469-1.582031-7.792969-4.394531-10.609375zm0 0" fill="#ff9f00"/><path d="m497 96.398438h-241v30h241c8.285156 0 15-6.714844 15-15 0-8.28125-6.714844-15-15-15zm0 0" fill="#3c1b13"/></svg>