<svg height="512pt" viewBox="0 0 512 512" width="512pt" xmlns="http://www.w3.org/2000/svg"><path d="m352.398438 417.730469h-192.800782c-25.988281 0-47.132812 21.148437-47.132812 47.136719 0 25.988281 21.144531 47.132812 47.132812 47.132812h192.800782c25.988281 0 47.132812-21.144531 47.132812-47.132812 0-25.992188-21.144531-47.136719-47.132812-47.136719zm0 0" fill="#00acb3"/><path d="m352.398438 512c25.992187 0 47.132812-21.144531 47.132812-47.132812 0-25.988282-21.140625-47.136719-47.132812-47.136719h-96.390626v94.269531zm0 0" fill="#008186"/><path d="m304.199219 353.464844h-96.398438c-8.285156 0-15 6.714844-15 15v64.269531c0 8.28125 6.714844 15 15 15h96.398438c8.285156 0 15-6.71875 15-15v-64.269531c0-8.285156-6.714844-15-15-15zm0 0" fill="#a8ebfa"/><path d="m304.199219 353.464844h-48.191407v94.269531h48.191407c8.285156 0 15-6.71875 15-15v-64.269531c0-8.285156-6.714844-15-15-15zm0 0" fill="#76e2f8"/><path d="m15 55.167969c0-22.09375 18.074219-40.167969 40.167969-40.167969h401.664062c22.09375 0 40.167969 18.074219 40.167969 40.167969v273.132812c0 22.089844-18.074219 40.164063-40.167969 40.164063h-401.664062c-22.09375 0-40.167969-18.074219-40.167969-40.164063zm0 0" fill="#fef4f5"/><path d="m456.832031 15h-200.824219v353.46875h200.824219c22.09375 0 40.164063-18.078125 40.164063-40.167969v-273.132812c.003906-22.09375-18.070313-40.167969-40.164063-40.167969zm0 0" fill="#d5eded"/><path d="m456.832031 383.464844h-401.664062c-30.421875 0-55.167969-24.746094-55.167969-55.164063v-273.132812c0-30.421875 24.746094-55.167969 55.167969-55.167969h401.664062c30.417969 0 55.164063 24.746094 55.164063 55.167969v273.132812c0 30.417969-24.746094 55.164063-55.164063 55.164063zm-401.664062-353.464844c-13.878907 0-25.167969 11.289062-25.167969 25.167969v273.132812c0 13.875 11.289062 25.164063 25.167969 25.164063h401.664062c13.878907 0 25.167969-11.289063 25.167969-25.164063v-273.132812c0-13.878907-11.289062-25.167969-25.167969-25.167969zm0 0" fill="#00acb3"/><path d="m143.53125 169.242188c-3.839844 0-7.675781-1.460938-10.605469-4.390626-5.855469-5.859374-5.855469-15.355468.003907-21.214843l74.976562-74.976563c5.855469-5.859375 15.355469-5.859375 21.214844 0 5.855468 5.855469 5.855468 15.355469 0 21.210938l-74.980469 74.980468c-2.929687 2.925782-6.769531 4.390626-10.609375 4.390626zm0 0" fill="#a8ebfa"/><path d="m368.464844 169.242188c-3.835938 0-7.675782-1.464844-10.605469-4.390626l-74.976563-74.980468c-5.859374-5.855469-5.859374-15.351563-.003906-21.210938 5.859375-5.855468 15.359375-5.855468 21.214844 0l74.976562 74.976563c5.859376 5.855469 5.859376 15.355469 0 21.214843-2.925781 2.925782-6.765624 4.390626-10.605468 4.390626zm0 0" fill="#76e2f8"/><path d="m393.902344 139.535156c-8.121094-1.625-16.027344 3.640625-17.652344 11.765625l-.585938 2.941407h-239.328124l-.585938-2.941407c-1.625-8.121093-9.53125-13.390625-17.652344-11.765625-8.125 1.625-13.390625 9.527344-11.765625 17.648438l22.636719 113.195312c5.472656 27.375 31.628906 48.820313 59.550781 48.820313h134.960938c27.917969 0 54.078125-21.445313 59.546875-48.820313l22.640625-113.195312c1.625-8.121094-3.644531-16.023438-11.765625-17.648438zm0 0" fill="#ff9f00"/><path d="m393.902344 139.535156c-8.121094-1.625-16.027344 3.640625-17.652344 11.765625l-.585938 2.941407h-119.65625v164.957031h67.472657c27.917969 0 54.078125-21.445313 59.546875-48.820313l22.640625-113.191406c1.625-8.125-3.644531-16.027344-11.765625-17.652344zm0 0" fill="#e47500"/><path d="m405.953125 139.242188h-104.976563c-.023437 0-.042968 0-.0625 0h-89.816406c-.03125 0-.058594 0-.089844 0h-104.964843c-8.28125 0-15 6.71875-15 15 0 8.285156 6.71875 15 15 15h91.394531l4.496094 44.980468h-65.898438c-8.285156 0-15 6.714844-15 15s6.714844 15 15 15h68.898438l6.148437 61.46875c.773438 7.734375 7.292969 13.507813 14.90625 13.507813.5 0 1.003907-.023438 1.511719-.074219 8.242188-.824219 14.257812-8.175781 13.433594-16.417969l-5.847656-58.484375h41.828124l-5.847656 58.484375c-.824218 8.242188 5.1875 15.59375 13.429688 16.417969.507812.050781 1.011718.074219 1.511718.074219 7.613282 0 14.132813-5.773438 14.910157-13.507813l6.144531-61.46875h68.898438c8.285156 0 15-6.714844 15-15s-6.714844-15-15-15h-65.898438l4.496094-44.980468h91.394531c8.285156 0 15-6.714844 15-15 0-8.28125-6.714844-15-15-15zm-126.039063 74.980468h-47.828124l-4.5-44.976562h56.824218zm0 0" fill="#d55f05"/><path d="m456.832031 0h-200.824219v30h200.824219c13.878907 0 25.167969 11.289062 25.167969 25.167969v273.132812c0 13.875-11.289062 25.167969-25.167969 25.167969h-200.824219v30h200.824219c30.417969 0 55.164063-24.75 55.164063-55.167969v-273.132812c0-30.421875-24.746094-55.167969-55.164063-55.167969zm0 0" fill="#008186"/><path d="m405.953125 139.242188h-104.976563c-.023437 0-.042968 0-.0625 0h-44.90625v30h28.402344l-4.496094 44.980468h-23.90625v30h20.90625l-5.847656 58.484375c-.824218 8.242188 5.1875 15.59375 13.429688 16.417969.507812.050781 1.011718.074219 1.511718.074219 7.613282 0 14.132813-5.773438 14.910157-13.507813l6.144531-61.46875h68.898438c8.285156 0 15-6.71875 15-15 0-8.285156-6.714844-15-15-15h-65.898438l4.496094-44.980468h91.394531c8.285156 0 15-6.714844 15-15 0-8.28125-6.714844-15-15-15zm0 0" fill="#a24603"/></svg>