<svg height="512pt" viewBox="0 0 512 512" width="512pt" xmlns="http://www.w3.org/2000/svg"><path d="m196.769531 4.199219c-28.105469-11.640625-60.441406 1.753906-72.078125 29.855469l-56.273437 135.863281c-3.171875 7.652343.460937 16.429687 8.117187 19.597656 7.652344 3.167969 16.425782-.464844 19.597656-8.117187l2.378907-5.738282h55.714843c.003907 5.882813 3.484376 11.464844 9.257813 13.855469 1.878906.777344 3.824219 1.144531 5.734375 1.144531 5.886719 0 11.472656-3.484375 13.863281-9.261718l43.542969-105.121094c11.640625-28.105469-1.753906-60.4375-29.855469-72.078125zm0 0" fill="#a8ebfa"/><path d="m443.585938 169.917969-56.277344-135.863281c-11.640625-28.101563-43.976563-41.496094-72.078125-29.851563-13.613281 5.636719-24.21875 16.238281-29.855469 29.855469-5.640625 13.609375-5.636719 28.605468.003906 42.222656l43.539063 105.117188c3.171875 7.652343 11.945312 11.289062 19.597656 8.117187 5.777344-2.390625 9.257813-7.972656 9.261719-13.855469h55.714844l2.378906 5.738282c2.390625 5.777343 7.976562 9.265624 13.863281 9.265624 1.914063 0 3.855469-.371093 5.734375-1.148437 7.652344-3.167969 11.285156-11.945313 8.117188-19.597656zm0 0" fill="#76e2f8"/><path d="m458.816406 241.125c-8.210937-1.09375-15.753906 4.671875-16.851562 12.882812l-.261719 1.984376h-371.402344l-.265625-1.984376c-1.09375-8.210937-8.640625-13.988281-16.851562-12.882812-8.210938 1.09375-13.980469 8.636719-12.886719 16.847656l26.824219 201.1875c1.894531 14.195313 9.1875 27.484375 20.539062 37.421875 11.347656 9.9375 25.484375 15.410157 39.804688 15.410157h257.070312c14.320313 0 28.457032-5.472657 39.808594-15.410157 11.347656-9.9375 18.640625-23.226562 20.535156-37.421875l26.824219-201.1875c1.097656-8.210937-4.671875-15.753906-12.886719-16.847656zm0 0" fill="#ff9f00"/><path d="m458.816406 241.125c-8.210937-1.09375-15.753906 4.671875-16.851562 12.882812l-.261719 1.984376h-185.703125v256h128.535156c14.320313 0 28.457032-5.472657 39.808594-15.410157 11.347656-9.9375 18.640625-23.226562 20.535156-37.421875l26.824219-201.1875c1.097656-8.210937-4.671875-15.753906-12.886719-16.847656zm0 0" fill="#e47500"/><path d="m256 431.660156c-8.28125 0-15-6.71875-15-15.003906v-80.332031c0-8.285157 6.71875-15 15-15 8.285156 0 15 6.714843 15 15v80.332031c0 8.285156-6.714844 15.003906-15 15.003906zm0 0" fill="#d55f05"/><path d="m336.335938 431.660156c-8.285157 0-15-6.71875-15-15.003906v-80.332031c0-8.285157 6.714843-15 15-15 8.285156 0 15 6.714843 15 15v80.332031c0 8.285156-6.714844 15.003906-15 15.003906zm0 0" fill="#a24603"/><path d="m175.667969 431.660156c-8.285157 0-15-6.71875-15-15.003906v-80.332031c0-8.285157 6.714843-15 15-15 8.285156 0 15 6.714843 15 15v80.332031c0 8.285156-6.714844 15.003906-15 15.003906zm0 0" fill="#d55f05"/><path d="m456.832031 160.65625h-401.664062c-30.421875 0-55.167969 24.746094-55.167969 55.167969 0 30.417969 24.746094 55.167969 55.167969 55.167969h401.664062c30.417969 0 55.167969-24.75 55.167969-55.167969 0-30.421875-24.75-55.167969-55.167969-55.167969zm0 0" fill="#d55f05"/><g fill="#a24603"><path d="m456.832031 160.65625h-200.828125v110.335938h200.828125c30.417969 0 55.167969-24.75 55.167969-55.167969 0-30.421875-24.75-55.167969-55.167969-55.167969zm0 0"/><path d="m256 321.324219v110.335937c8.285156 0 15-6.71875 15-15.003906v-80.332031c0-8.285157-6.714844-15-15-15zm0 0"/></g></svg>