<svg height="512pt" viewBox="0 0 512 512" width="512pt" xmlns="http://www.w3.org/2000/svg"><path d="m352.398438 417.730469h-192.796876c-25.988281 0-47.136718 21.148437-47.136718 47.136719 0 25.988281 21.144531 47.132812 47.136718 47.132812h192.796876c25.992187 0 47.136718-21.144531 47.136718-47.132812 0-25.988282-21.144531-47.136719-47.136718-47.136719zm0 0" fill="#00acb3"/><path d="m352.398438 512c25.992187 0 47.136718-21.144531 47.136718-47.132812 0-25.988282-21.144531-47.136719-47.136718-47.136719h-96.390626v94.269531zm0 0" fill="#008186"/><path d="m304.203125 353.464844h-96.402344c-8.285156 0-15 6.714844-15 15v64.265625c0 8.285156 6.714844 15 15 15h96.402344c8.28125 0 15-6.714844 15-15v-64.265625c0-8.285156-6.71875-15-15-15zm0 0" fill="#a8ebfa"/><path d="m304.199219 353.464844h-48.191407v94.269531h48.191407c8.285156 0 15-6.71875 15-15v-64.269531c0-8.285156-6.714844-15-15-15zm0 0" fill="#76e2f8"/><path d="m15 55.167969c0-22.09375 18.074219-40.167969 40.167969-40.167969h401.667969c22.089843 0 40.164062 18.074219 40.164062 40.167969v273.132812c0 22.089844-18.074219 40.164063-40.167969 40.164063h-401.664062c-22.09375 0-40.167969-18.074219-40.167969-40.164063zm0 0" fill="#fef4f5"/><path d="m456.835938 15h-200.828126v353.46875h200.828126c22.089843 0 40.164062-18.078125 40.164062-40.167969v-273.132812c0-22.09375-18.074219-40.167969-40.164062-40.167969zm0 0" fill="#d5eded"/><path d="m456.835938 383.464844h-401.667969c-30.421875 0-55.167969-24.746094-55.167969-55.164063v-273.132812c0-30.421875 24.746094-55.167969 55.167969-55.167969h401.667969c30.417968 0 55.164062 24.746094 55.164062 55.167969v273.132812c0 30.417969-24.746094 55.164063-55.164062 55.164063zm-401.667969-353.464844c-13.878907 0-25.167969 11.289062-25.167969 25.167969v273.132812c0 13.875 11.289062 25.164063 25.167969 25.164063h401.667969c13.875 0 25.164062-11.289063 25.164062-25.164063v-273.132812c0-13.878907-11.289062-25.167969-25.164062-25.167969zm0 0" fill="#00acb3"/><path d="m456.835938 0h-200.828126v30h200.828126c13.875 0 25.164062 11.289062 25.164062 25.167969v273.132812c0 13.875-11.289062 25.167969-25.167969 25.167969h-200.824219v30h200.828126c30.417968 0 55.164062-24.75 55.164062-55.167969v-273.132812c0-30.421875-24.746094-55.167969-55.164062-55.167969zm0 0" fill="#008186"/><path d="m197.519531 132.523438c-7.550781 0-11.085937 1.605468-16.386719 11.085937l-19.761718 35.992187-19.765625-35.992187c-5.304688-9.480469-8.675781-11.085937-16.230469-11.085937-5.300781 0-10.441406 2.730468-10.441406 10.445312v100.421875c0 4.335937 5.140625 6.585937 10.441406 6.585937 5.144531 0 10.445312-2.25 10.445312-6.585937v-70.375l18.476563 34.703125c1.769531 3.214844 4.339844 4.179688 6.910156 4.179688 2.574219 0 5.300781-.964844 7.070313-4.179688l18.796875-33.421875v69.09375c0 4.335937 5.144531 6.585937 10.445312 6.585937 5.144531 0 10.441407-2.25 10.441407-6.585937v-100.421875c0-7.714844-5.136719-10.445312-10.441407-10.445312zm0 0" fill="#663325"/><path d="m263.546875 132.523438c-21.207031 0-37.597656 9.960937-37.597656 36.792968v44.832032c0 26.832031 16.390625 36.792968 37.597656 36.792968 21.210937 0 37.761719-9.960937 37.761719-36.792968v-44.832032c0-26.832031-16.550782-36.792968-37.761719-36.792968zm16.871094 81.625c0 12.691406-6.425781 18.476562-16.871094 18.476562-10.601563 0-16.707031-5.785156-16.707031-18.476562v-44.832032c0-12.691406 6.105468-18.476562 16.707031-18.476562 10.445313 0 16.871094 5.785156 16.871094 18.476562zm0 0" fill="#663325"/><g fill="#3c1b13"><path d="m386.621094 132.523438c-5.300782 0-10.441406 1.929687-10.441406 6.429687v64.589844l-31.011719-59.933594c-4.980469-9.480469-8.035157-11.085937-15.585938-11.085937-5.300781 0-10.445312 2.089843-10.445312 6.589843v104.277344c0 4.335937 5.144531 6.585937 10.445312 6.585937 5.144531 0 10.441407-2.25 10.441407-6.585937v-64.59375l34.546874 64.59375c2.734376 4.980469 7.070313 6.585937 12.050782 6.585937 5.144531 0 10.445312-2.25 10.445312-6.585937v-104.4375c0-4.5-5.304687-6.429687-10.445312-6.429687zm0 0"/><path d="m263.546875 132.523438c-2.59375 0-5.117187.152343-7.546875.460937v19.15625c2.171875-.863281 4.691406-1.300781 7.546875-1.300781 10.445313 0 16.871094 5.785156 16.871094 18.476562v44.832032c0 12.691406-6.425781 18.476562-16.871094 18.476562-2.855469 0-5.375-.4375-7.546875-1.296875v19.148437c2.429688.3125 4.953125.464844 7.546875.464844 21.210937 0 37.761719-9.960937 37.761719-36.792968v-44.832032c0-26.832031-16.550782-36.792968-37.761719-36.792968zm0 0"/></g></svg>