<svg height="512pt" viewBox="0 0 512.00029 512" width="512pt" xmlns="http://www.w3.org/2000/svg"><path d="m416.667969 55.167969c0-22.09375-18.074219-40.167969-40.164063-40.167969h-241c-22.09375 0-40.167968 18.074219-40.167968 40.167969v313.300781h321.332031zm0 0" fill="#fef4f5"/><path d="m416.667969 55.167969c0-22.09375-18.074219-40.167969-40.164063-40.167969h-120.5v353.46875h160.664063zm0 0" fill="#d5eded"/><path d="m376.503906 0h-241c-30.417968 0-55.167968 24.75-55.167968 55.167969v401.667969c0 30.417968 24.75 55.164062 55.167968 55.164062h241c30.417969 0 55.164063-24.746094 55.164063-55.164062v-401.667969c0-30.417969-24.746094-55.167969-55.164063-55.167969zm-266.167968 55.167969c0-13.878907 11.289062-25.167969 25.167968-25.167969h241c13.875 0 25.164063 11.289062 25.164063 25.167969v298.300781h-291.332031zm0 0" fill="#00acb3"/><path d="m376.503906 0h-120.5v30h120.5c13.875 0 25.164063 11.289062 25.164063 25.167969v298.300781h-145.664063v158.53125h120.5c30.417969 0 55.164063-24.746094 55.164063-55.164062v-401.667969c0-30.417969-24.746094-55.167969-55.164063-55.167969zm0 0" fill="#008186"/><path d="m256.003906 393.636719c-21.5625 0-39.101562 17.539062-39.101562 39.097656 0 21.5625 17.539062 39.101563 39.101562 39.101563 21.558594 0 39.097656-17.539063 39.097656-39.101563 0-21.558594-17.539062-39.097656-39.097656-39.097656zm0 0" fill="#a8ebfa"/><path d="m511.421875 123.347656-21.097656-73.84375c-7.929688-27.757812-36.757813-49.503906-65.625-49.503906h-337.398438c-28.867187 0-57.695312 21.746094-65.621093 49.503906l-21.101563 73.84375c-1.292969 4.523438-.386719 9.394532 2.445313 13.152344 2.835937 3.757812 7.269531 5.96875 11.976562 5.96875h482c4.707031 0 9.140625-2.210938 11.976562-5.96875 2.832032-3.757812 3.738282-8.628906 2.445313-13.152344zm0 0" fill="#ff4949"/><path d="m511.421875 123.347656-21.097656-73.84375c-7.929688-27.757812-36.757813-49.503906-65.625-49.503906h-168.695313v142.46875h240.996094c4.707031 0 9.140625-2.210938 11.976562-5.96875 2.832032-3.757812 3.738282-8.628906 2.445313-13.152344zm0 0" fill="#ff2323"/><path d="m207.800781 112.46875h-96.398437c-8.285156 0-15 6.714844-15 15v48.199219c0 34.847656 28.351562 63.199219 63.199218 63.199219 34.847657 0 63.199219-28.351563 63.199219-63.199219v-48.199219c0-8.285156-6.714843-15-15-15zm0 0" fill="#ff4949"/><path d="m400.601562 112.46875h-96.402343c-8.28125 0-15 6.714844-15 15v48.199219c0 34.847656 28.351562 63.199219 63.203125 63.199219 34.847656 0 63.199218-28.351563 63.199218-63.199219v-48.199219c0-8.285156-6.714843-15-15-15zm0 0" fill="#ff2323"/><path d="m111.398438 112.46875h-96.398438c-8.285156 0-15 6.714844-15 15v48.199219c0 34.847656 28.351562 63.199219 63.199219 63.199219 34.851562 0 63.199219-28.351563 63.199219-63.199219v-48.199219c0-8.285156-6.714844-15-15-15zm0 0" fill="#ff9f00"/><path d="m304.199219 112.46875h-96.398438c-8.285156 0-15 6.714844-15 15v48.199219c0 34.847656 28.351563 63.199219 63.199219 63.199219s63.199219-28.351563 63.199219-63.199219v-48.199219c0-8.285156-6.714844-15-15-15zm0 0" fill="#ff9f00"/><path d="m497 112.46875h-96.398438c-8.285156 0-15 6.714844-15 15v48.199219c0 34.847656 28.351563 63.199219 63.199219 63.199219 34.847657 0 63.199219-28.351563 63.199219-63.199219v-48.199219c0-8.285156-6.714844-15-15-15zm0 0" fill="#e47500"/><path d="m256.003906 471.835938c21.558594 0 39.097656-17.539063 39.097656-39.101563 0-21.558594-17.539062-39.101563-39.097656-39.101563zm0 0" fill="#76e2f8"/><path d="m304.199219 112.46875h-48.195313v126.398438c34.847656-.003907 63.195313-28.351563 63.195313-63.199219v-48.199219c0-8.285156-6.714844-15-15-15zm0 0" fill="#e47500"/></svg>