<svg height="512pt" viewBox="0 -70 512.001 512" width="512pt" xmlns="http://www.w3.org/2000/svg"><path d="m296.167969 0h-241c-30.417969 0-55.167969 24.746094-55.167969 55.167969v200.835937c0 30.417969 24.75 55.164063 55.167969 55.164063h281.164062c3.980469 0 7.792969-1.578125 10.609375-4.390625 2.8125-2.8125 4.390625-6.628906 4.390625-10.609375v-241c0-30.421875-24.746093-55.167969-55.164062-55.167969zm0 0" fill="#a8ebfa"/><path d="m296.167969 0h-40.164063v311.167969h80.332032c3.976562 0 7.792968-1.578125 10.605468-4.390625s4.394532-6.628906 4.394532-10.609375v-241c-.003907-30.421875-24.75-55.167969-55.167969-55.167969zm0 0" fill="#76e2f8"/><path d="m507.609375 140.964844-80.335937-80.335938c-2.8125-2.816406-6.628907-4.394531-10.605469-4.394531h-80.332031c-3.980469 0-7.796876 1.578125-10.609376 4.394531-2.8125 2.8125-4.390624 6.625-4.390624 10.605469v224.933594c0 3.980469 1.582031 7.796875 4.394531 10.609375s6.628906 4.390625 10.605469 4.390625h160.664062c8.285156 0 15-6.71875 15-15v-144.597657c0-4.140624-1.675781-7.890624-4.390625-10.605468zm0 0" fill="#ff2323"/><path d="m199.765625 296.167969c0 33.277343-26.972656 60.253906-60.25 60.253906-33.269531 0-60.25-26.976563-60.25-60.253906 0-33.277344 26.980469-60.25 60.25-60.25 33.277344 0 60.25 26.972656 60.25 60.25zm0 0" fill="#fef4f5"/><path d="m139.515625 371.421875c-41.492187 0-75.25-33.757813-75.25-75.253906 0-41.492188 33.757813-75.25 75.25-75.25s75.25 33.757812 75.25 75.25c0 41.496093-33.757813 75.253906-75.25 75.253906zm0-120.503906c-24.949219 0-45.25 20.296875-45.25 45.25s20.300781 45.253906 45.25 45.253906 45.25-20.300781 45.25-45.253906-20.300781-45.25-45.25-45.25zm0 0" fill="#663325"/><path d="m432.734375 296.167969c0 33.277343-26.972656 60.25-60.25 60.25s-60.25-26.972657-60.25-60.25c0-33.277344 26.972656-60.25 60.25-60.25s60.25 26.972656 60.25 60.25zm0 0" fill="#d5eded"/><path d="m372.484375 371.421875c-41.492187 0-75.25-33.757813-75.25-75.253906 0-41.492188 33.757813-75.25 75.25-75.25s75.25 33.757812 75.25 75.25c0 41.496093-33.757813 75.253906-75.25 75.253906zm0-120.503906c-24.949219 0-45.25 20.296875-45.25 45.25s20.300781 45.253906 45.25 45.253906c24.953125 0 45.25-20.300781 45.25-45.253906s-20.296875-45.25-45.25-45.25zm0 0" fill="#3c1b13"/><path d="m410.453125 86.234375h-59.121094v50.335937h109.457031zm0 0" fill="#d5eded"/></svg>