<svg height="512pt" viewBox="-20 0 512 512" width="512pt" xmlns="http://www.w3.org/2000/svg"><path d="m436.75 200.832031c-8.285156 0-15 6.71875-15 15h-371.664062c0-8.28125-6.71875-15-15-15-8.285157 0-15 6.71875-15 15v241c0 30.421875 24.746093 55.167969 55.164062 55.167969h321.335938c30.417968 0 55.164062-24.746094 55.164062-55.167969v-241c0-8.28125-6.71875-15-15-15zm0 0" fill="#fef4f5"/><path d="m436.75 200.832031c-8.285156 0-15 6.71875-15 15h-185.835938v296.167969h160.671876c30.417968 0 55.164062-24.746094 55.164062-55.167969v-241c0-8.28125-6.71875-15-15-15zm0 0" fill="#d5eded"/><path d="m416.664062 80.332031h-361.5c-30.417968 0-55.164062 24.75-55.164062 55.167969v80.332031c0 8.285157 6.714844 15 15 15h441.835938c8.28125 0 15-6.714843 15-15v-80.332031c0-30.417969-24.75-55.167969-55.171876-55.167969zm0 0" fill="#ff4949"/><path d="m416.664062 80.332031h-180.75v150.5h220.921876c8.28125 0 15-6.714843 15-15v-80.332031c0-30.417969-24.75-55.167969-55.171876-55.167969zm0 0" fill="#ff2323"/><path d="m331.25 55.164062c0-30.417968-24.746094-55.164062-55.164062-55.164062-15.824219 0-30.101563 6.703125-40.171876 17.410156-10.066406-10.707031-24.34375-17.410156-40.164062-17.410156-30.417969 0-55.164062 24.746094-55.164062 55.164062 0 17.105469 7.820312 32.417969 20.078124 42.546876v399.289062c0 8.285156 6.71875 15 15 15h120.5c8.285157 0 15-6.714844 15-15v-399.289062c12.261719-10.128907 20.085938-25.441407 20.085938-42.546876zm-80.335938 0c0-13.875 11.292969-25.164062 25.171876-25.164062 13.875 0 25.164062 11.289062 25.164062 25.164062 0 13.878907-11.289062 25.167969-25.164062 25.167969h-25.171876zm-55.164062-25.164062c13.878906 0 25.164062 11.289062 25.164062 25.164062v25.167969h-25.164062c-13.878906 0-25.164062-11.289062-25.164062-25.167969 0-13.875 11.285156-25.164062 25.164062-25.164062zm0 0" fill="#ff9f00"/><path d="m276.085938 0c-15.824219 0-30.101563 6.703125-40.171876 17.410156v494.589844h60.25c8.285157 0 15-6.714844 15-15v-399.289062c12.261719-10.128907 20.085938-25.441407 20.085938-42.546876 0-30.417968-24.746094-55.164062-55.164062-55.164062zm0 80.332031h-25.171876v-25.167969c0-13.875 11.292969-25.164062 25.171876-25.164062 13.875 0 25.164062 11.289062 25.164062 25.164062 0 13.878907-11.289062 25.167969-25.164062 25.167969zm0 0" fill="#e47500"/></svg>