<svg height="512pt" viewBox="0 -12 512.00113 512" width="512pt" xmlns="http://www.w3.org/2000/svg"><path d="m508.679688 234.796875-46.40625-57.609375 3.683593-73.886719c.351563-7.046875-4.253906-13.382812-11.0625-15.226562l-71.410156-19.332031-40.449219-61.941407c-3.855468-5.902343-11.304687-8.328125-17.898437-5.816406l-69.136719 26.339844-69.132812-26.339844c-6.589844-2.511719-14.042969-.089844-17.898438 5.816406l-40.449219 61.941407-71.410156 19.332031c-6.808594 1.84375-11.414063 8.179687-11.0625 15.226562l3.6875 73.886719-46.414063 57.609375c-4.425781 5.496094-4.425781 13.328125 0 18.820313l46.410157 57.613281-3.6875 73.886719c-.351563 7.046874 4.253906 13.382812 11.0625 15.226562l71.410156 19.328125 40.449219 61.941406c3.859375 5.90625 11.308594 8.324219 17.902344 5.816407l69.132812-26.335938 69.132812 26.335938c1.746094.664062 3.554688.984374 5.335938.984374 4.953125 0 9.730469-2.460937 12.566406-6.800781l40.445313-61.941406 71.414062-19.328125c6.808594-1.84375 11.410157-8.183594 11.0625-15.226562l-3.683593-73.890626 46.40625-57.609374c4.429687-5.492188 4.429687-13.324219 0-18.820313zm0 0" fill="#ff9f00"/><path d="m508.679688 234.796875-46.40625-57.609375 3.683593-73.886719c.351563-7.046875-4.253906-13.382812-11.0625-15.226562l-71.410156-19.332031-40.449219-61.941407c-3.855468-5.902343-11.304687-8.328125-17.898437-5.816406l-69.136719 26.339844v433.769531l69.136719 26.339844c1.746093.664062 3.550781.980468 5.335937.980468 4.949219 0 9.726563-2.457031 12.5625-6.800781l40.449219-61.941406 71.410156-19.328125c6.808594-1.84375 11.414063-8.179688 11.0625-15.226562l-3.683593-73.886719 46.40625-57.609375c4.429687-5.496094 4.429687-13.328125 0-18.824219zm0 0" fill="#e47500"/><path d="m143.53125 292.410156v-120.503906c0-22.089844 18.074219-40.164062 40.167969-40.164062h144.601562c22.089844 0 40.164063 18.074218 40.164063 40.164062v120.503906" fill="#fef4f5"/><path d="m368.464844 171.90625c0-22.089844-18.074219-40.164062-40.164063-40.164062h-72.300781v160.667968h112.464844zm0 0" fill="#d5eded"/><path d="m368.464844 307.410156c-8.285156 0-15-6.714844-15-15v-120.503906c0-13.875-11.289063-25.164062-25.164063-25.164062h-144.601562c-13.875 0-25.167969 11.289062-25.167969 25.164062v120.503906c0 8.285156-6.714844 15-15 15-8.28125 0-15-6.714844-15-15v-120.503906c0-30.417969 24.75-55.164062 55.167969-55.164062h144.601562c30.417969 0 55.164063 24.746093 55.164063 55.164062v120.503906c0 8.285156-6.714844 15-15 15zm0 0" fill="#00acb3"/><path d="m328.300781 116.742188h-72.300781v30h72.300781c13.875 0 25.164063 11.289062 25.164063 25.164062v120.503906c0 8.285156 6.714844 15 15 15s15-6.714844 15-15v-120.503906c0-30.417969-24.746094-55.164062-55.164063-55.164062zm0 0" fill="#008186"/><path d="m384.53125 277.410156h-257.066406c-8.285156 0-15 6.714844-15 15v32.132813c0 25.988281 21.144531 47.132812 47.136718 47.132812h192.800782c25.988281 0 47.132812-21.144531 47.132812-47.132812v-32.132813c-.003906-8.285156-6.714844-15-15.003906-15zm0 0" fill="#a8ebfa"/><path d="m384.53125 277.410156h-128.53125v94.265625h96.398438c25.992187 0 47.132812-21.144531 47.132812-47.132812v-32.132813c0-8.285156-6.710938-15-15-15zm0 0" fill="#76e2f8"/><path d="m277.378906 315.976562h-42.832031c-8.285156 0-15-6.714843-15-15 0-8.285156 6.714844-15 15-15h42.832031c8.285156 0 15 6.714844 15 15 0 8.285157-6.714844 15-15 15zm0 0" fill="#00acb3"/><path d="m277.378906 285.976562h-21.378906v30h21.378906c8.285156 0 15-6.714843 15-15 0-8.285156-6.714844-15-15-15zm0 0" fill="#008186"/></svg>