<svg height="512pt" viewBox="0 -33 512 512" width="512pt" xmlns="http://www.w3.org/2000/svg"><path d="m416.667969 95.199219c-8.285157 0-15 6.714843-15 15v160.667969c0 8.285156 6.714843 15 15 15 52.566406 0 95.332031-42.765626 95.332031-95.332032s-42.765625-95.335937-95.332031-95.335937zm0 0" fill="#a8ebfa"/><path d="m401.667969 270.867188c0 8.285156 6.714843 15 15 15 52.566406 0 95.332031-42.765626 95.332031-95.332032h-110.332031zm0 0" fill="#76e2f8"/><path d="m151.566406 255.867188c-8.285156 0-15 6.714843-15 15h-82.167968l-.589844-2.941407c-1.625-8.121093-9.527344-13.386719-17.652344-11.769531-8.121094 1.625-13.390625 9.527344-11.765625 17.652344l24.253906 121.277344c5.773438 28.851562 33.335938 51.445312 62.753907 51.445312 30.421874 0 55.167968-24.746094 55.167968-55.164062v-120.5c0-8.285157-6.714844-15-15-15zm0 0" fill="#d5eded"/><path d="m393.847656 0c-6.527344 0-13.246094 1.53125-19.960937 4.554688l-204.375 91.96875c-5.382813 2.421874-8.84375 7.773437-8.84375 13.675781v160.667969c0 5.902343 3.460937 11.257812 8.84375 13.679687l204.371093 91.964844c6.71875 3.023437 13.433594 4.554687 19.964844 4.554687h.003906c10.960938 0 20.808594-4.378906 27.726563-12.332031 6.601563-7.582031 10.089844-17.808594 10.089844-29.582031v-297.234375c0-24.679688-15.554688-41.917969-37.820313-41.917969zm0 0" fill="#fef4f5"/><path d="m160.667969 190.535156v80.332032c0 5.902343 3.460937 11.257812 8.84375 13.679687l204.371093 91.964844c6.71875 3.023437 13.433594 4.554687 19.964844 4.554687h.003906c10.960938 0 20.808594-4.378906 27.726563-12.332031 6.601563-7.582031 10.089844-17.808594 10.089844-29.582031v-148.617188zm0 0" fill="#d5eded"/><path d="m175.667969 95.199219h-120.5c-30.421875 0-55.167969 24.75-55.167969 55.167969v80.332031c0 30.417969 24.746094 55.167969 55.167969 55.167969h120.5c8.28125 0 15-6.714844 15-15v-160.667969c0-8.285157-6.71875-15-15-15zm0 0" fill="#ff9f00"/><path d="m0 230.699219c0 30.417969 24.746094 55.167969 55.167969 55.167969h120.5c8.28125 0 15-6.714844 15-15v-80.332032h-190.667969zm0 0" fill="#e47500"/></svg>