<svg height="512pt" viewBox="0 0 512 512" width="512pt" xmlns="http://www.w3.org/2000/svg"><path d="m352.398438 417.730469h-192.800782c-25.988281 0-47.132812 21.148437-47.132812 47.136719 0 25.988281 21.144531 47.132812 47.132812 47.132812h192.800782c25.992187 0 47.132812-21.144531 47.132812-47.132812 0-25.988282-21.140625-47.136719-47.132812-47.136719zm0 0" fill="#00acb3"/><path d="m352.398438 512c25.992187 0 47.132812-21.144531 47.132812-47.132812 0-25.988282-21.140625-47.136719-47.132812-47.136719h-96.386719v94.269531zm0 0" fill="#008186"/><path d="m304.199219 353.46875h-96.398438c-8.285156 0-15 6.714844-15 15v64.265625c0 8.285156 6.714844 15 15 15h96.398438c8.285156 0 15-6.714844 15-15v-64.265625c0-8.285156-6.714844-15-15-15zm0 0" fill="#a8ebfa"/><path d="m304.199219 353.464844h-48.1875v94.269531h48.1875c8.285156 0 15-6.714844 15-15v-64.269531c0-8.28125-6.714844-15-15-15zm0 0" fill="#76e2f8"/><path d="m15 55.164062c0-22.089843 18.074219-40.164062 40.164062-40.164062h401.671876c22.089843 0 40.164062 18.074219 40.164062 40.164062v273.136719c0 22.09375-18.074219 40.167969-40.164062 40.167969h-401.671876c-22.089843 0-40.164062-18.074219-40.164062-40.167969zm0 0" fill="#fef4f5"/><path d="m456.835938 15h-200.824219v353.46875h200.824219c22.089843 0 40.164062-18.078125 40.164062-40.167969v-273.136719c0-22.089843-18.074219-40.164062-40.164062-40.164062zm0 0" fill="#d5eded"/><path d="m456.835938 383.46875h-401.671876c-30.417968 0-55.164062-24.75-55.164062-55.167969v-273.136719c0-30.417968 24.746094-55.164062 55.164062-55.164062h401.671876c30.417968 0 55.164062 24.746094 55.164062 55.164062v273.136719c0 30.417969-24.746094 55.167969-55.164062 55.167969zm-401.671876-353.46875c-13.875 0-25.164062 11.289062-25.164062 25.164062v273.136719c0 13.878907 11.289062 25.167969 25.164062 25.167969h401.671876c13.875 0 25.164062-11.289062 25.164062-25.167969v-273.136719c0-13.875-11.289062-25.164062-25.164062-25.164062zm0 0" fill="#00acb3"/><path d="m456.835938 0h-200.824219v30h200.824219c13.875 0 25.164062 11.289062 25.164062 25.164062v273.136719c0 13.878907-11.289062 25.167969-25.164062 25.167969h-200.824219v30h200.824219c30.417968 0 55.164062-24.75 55.164062-55.167969v-273.136719c0-30.417968-24.746094-55.164062-55.164062-55.164062zm0 0" fill="#008186"/><path d="m293.488281 169.242188c-8.285156 0-15-6.714844-15-15v-37.484376c0-12.402343-10.089843-22.488281-22.488281-22.488281s-22.488281 10.085938-22.488281 22.488281v37.484376c0 8.285156-6.714844 15-15 15-8.285157 0-15-6.714844-15-15v-37.484376c0-28.941406 23.546875-52.488281 52.488281-52.488281s52.488281 23.546875 52.488281 52.488281v37.484376c0 8.285156-6.714843 15-15 15zm0 0" fill="#a8ebfa"/><path d="m256 64.269531v30c12.398438 0 22.488281 10.085938 22.488281 22.488281v37.484376c0 8.285156 6.714844 15 15 15 8.285157 0 15-6.714844 15-15v-37.484376c0-28.945312-23.546875-52.488281-52.488281-52.488281zm0 0" fill="#76e2f8"/><path d="m345.820312 301.898438-14.914062-149.144532c-.765625-7.667968-7.21875-13.511718-14.925781-13.511718h-119.964844c-7.707031 0-14.15625 5.84375-14.925781 13.511718l-14.992188 149.953125c-.421875 4.21875.957032 8.414063 3.800782 11.558594 2.84375 3.140625 6.886718 4.933594 11.121093 4.933594h149.957031.019532c8.285156 0 15-6.714844 15-15 0-.78125-.058594-1.550781-.175782-2.300781zm0 0" fill="#54e360"/><path d="m345.820312 301.898438-14.914062-149.144532c-.765625-7.667968-7.21875-13.511718-14.925781-13.511718h-59.980469v179.957031h74.980469.019531c8.28125 0 15-6.714844 15-15-.003906-.78125-.0625-1.550781-.179688-2.300781zm0 0" fill="#00ab5e"/></svg>