<svg height="512pt" viewBox="0 -16 512 512" width="512pt" xmlns="http://www.w3.org/2000/svg"><path d="m440.769531 15h-369.535156c-22.089844 0-40.167969 18.074219-40.167969 40.167969v313.300781h449.867188v-313.300781c0-22.09375-18.078125-40.167969-40.164063-40.167969zm0 0" fill="#fef4f5"/><path d="m480.933594 55.167969c0-22.09375-18.078125-40.167969-40.164063-40.167969h-184.773437v353.46875h224.9375zm0 0" fill="#d5eded"/><path d="m480.933594 383.46875h-449.867188c-8.285156 0-15-6.71875-15-15v-313.300781c0-30.421875 24.746094-55.167969 55.167969-55.167969h369.53125c30.417969 0 55.167969 24.746094 55.167969 55.167969v313.300781c0 8.28125-6.714844 15-15 15zm-434.867188-30h419.867188v-298.300781c0-13.878907-11.292969-25.167969-25.167969-25.167969h-369.53125c-13.878906 0-25.167969 11.289062-25.167969 25.167969zm0 0" fill="#00acb3"/><path d="m440.769531 0h-184.773437v30h184.773437c13.878907 0 25.167969 11.289062 25.167969 25.167969v298.300781h-209.941406v30h224.9375c8.285156 0 15-6.71875 15-15v-313.300781c0-30.421875-24.746094-55.167969-55.164063-55.167969zm0 0" fill="#008186"/><path d="m497 353.46875h-482c-8.285156 0-15 6.714844-15 15v16.066406c0 52.566406 42.765625 95.332032 95.335938 95.332032h321.328124c52.570313 0 95.335938-42.765626 95.335938-95.332032v-16.066406c0-8.285156-6.714844-15-15-15zm0 0" fill="#a8ebfa"/><path d="m497 353.46875h-241v126.398438h160.667969c52.566406 0 95.332031-42.765626 95.332031-95.335938v-16.0625c0-8.285156-6.714844-15-15-15zm0 0" fill="#76e2f8"/><path d="m113.410156 162.171875c0-7.714844 6.589844-12.375 18.15625-12.375 13.496094 0 17.191406 6.105469 22.171875 6.105469 5.789063 0 8.355469-7.390625 8.355469-11.085938 0-10.605468-21.050781-12.851562-30.527344-12.851562-18.476562 0-39.042968 8.191406-39.042968 32.132812 0 38.078125 51.574218 30.6875 51.574218 54.789063 0 9.640625-8.351562 13.980469-17.996094 13.980469-16.386718 0-20.726562-12.375-27.3125-12.375-4.980468 0-9.160156 6.75-9.160156 11.25 0 9.320312 16.070313 19.925781 37.117188 19.925781 22.171875 0 38.242187-11.890625 38.242187-34.867188 0-41.617187-51.578125-34.707031-51.578125-54.628906zm0 0" fill="#663325"/><path d="m229.246094 138.875c-1.441406-4.820312-7.386719-7.074219-13.492188-7.074219-5.941406 0-11.894531 2.253907-13.335937 7.074219l-31.011719 101.0625c-.160156.644531-.320312 1.285156-.320312 1.609375 0 5.140625 7.550781 8.675781 13.175781 8.675781 3.535156 0 6.269531-1.125 7.074219-4.179687l6.101562-21.367188h36.796875l6.101563 21.367188c.804687 3.054687 3.535156 4.179687 7.070312 4.179687 5.628906 0 13.179688-3.699218 13.179688-8.675781 0-.480469-.164063-.964844-.320313-1.609375zm-27.46875 69.410156 13.976562-49.328125 13.976563 49.328125zm0 0" fill="#663325"/><path d="m331.757812 231.902344h-39.207031v-92.707032c0-4.5-5.300781-6.425781-10.445312-6.425781-5.296875 0-10.441407 1.925781-10.441407 6.425781v104.4375c0 4.335938 4.5 6.585938 9.160157 6.585938h50.933593c4.175782 0 6.265626-4.65625 6.265626-9.15625 0-4.660156-2.089844-9.160156-6.265626-9.160156zm0 0" fill="#3c1b13"/><path d="m415.78125 231.902344h-45.46875v-32.292969h24.421875c4.5 0 6.589844-4.339844 6.589844-8.035156 0-4.339844-2.410157-8.355469-6.589844-8.355469h-24.421875v-32.132812h45.46875c4.183594 0 6.589844-4.34375 6.589844-9.320313 0-4.339844-2.089844-8.996094-6.589844-8.996094h-57.195312c-4.660157 0-9.15625 2.246094-9.15625 6.585938v104.277343c0 4.335938 4.496093 6.585938 9.15625 6.585938h57.195312c4.5 0 6.589844-4.65625 6.589844-8.996094 0-4.980468-2.40625-9.320312-6.589844-9.320312zm0 0" fill="#3c1b13"/><path d="m296.164062 399.535156h-80.328124c-8.285157 0-15-6.71875-15-15 0-8.285156 6.714843-15 15-15h80.328124c8.285157 0 15 6.714844 15 15 0 8.28125-6.714843 15-15 15zm0 0" fill="#00acb3"/><path d="m296.167969 369.535156h-40.167969v30h40.167969c8.28125 0 15-6.71875 15-15 0-8.285156-6.71875-15-15-15zm0 0" fill="#008186"/></svg>