<svg height="511pt" viewBox="0 -11 511.99913 511" width="511pt" xmlns="http://www.w3.org/2000/svg"><path d="m508.679688 235.296875-46.410157-57.609375 3.683594-73.890625c.351563-7.046875-4.253906-13.382813-11.0625-15.226563l-71.410156-19.328124-40.449219-61.941407c-3.855469-5.90625-11.304688-8.328125-17.894531-5.816406l-69.136719 26.335937-69.132812-26.335937c-6.59375-2.511719-14.042969-.089844-17.898438 5.816406l-40.449219 61.941407-71.410156 19.328124c-6.8125 1.84375-11.414063 8.179688-11.0625 15.226563l3.683594 73.886719-46.410157 57.609375c-4.425781 5.496093-4.425781 13.328125 0 18.820312l46.410157 57.609375-3.683594 73.890625c-.351563 7.046875 4.25 13.382813 11.0625 15.226563l71.40625 19.328125 40.453125 61.941406c3.855469 5.90625 11.304688 8.328125 17.898438 5.816406l69.132812-26.335937 69.132812 26.335937c1.746094.667969 3.550782.984375 5.335938.984375 4.949219 0 9.726562-2.457031 12.5625-6.800781l40.449219-61.941406 71.410156-19.328125c6.808594-1.84375 11.414063-8.179688 11.0625-15.226563l-3.683594-73.886719 46.410157-57.609374c4.425781-5.496094 4.425781-13.328126 0-18.820313zm0 0" fill="#ff9f00"/><path d="m508.679688 235.296875-46.410157-57.609375 3.683594-73.890625c.351563-7.046875-4.253906-13.382813-11.0625-15.226563l-71.410156-19.328124-40.449219-61.941407c-3.855469-5.90625-11.304688-8.328125-17.894531-5.816406l-69.136719 26.335937v433.769532l69.132812 26.335937c1.746094.667969 3.550782.984375 5.335938.984375 4.949219 0 9.726562-2.457031 12.5625-6.800781l40.449219-61.941406 71.410156-19.328125c6.808594-1.84375 11.414063-8.179688 11.0625-15.226563l-3.683594-73.886719 46.410157-57.609374c4.425781-5.496094 4.425781-13.328126 0-18.820313zm0 0" fill="#e47500"/><path d="m271.621094 229.707031h-31.246094c-8.507812 0-16.511719-3.316406-22.527344-9.332031-6.015625-6.019531-9.332031-14.019531-9.328125-22.535156-.003906-8.507813 3.3125-16.507813 9.328125-22.523438 6.019532-6.019531 14.019532-9.332031 22.527344-9.332031l15.609375-.003906c.003906 0 .007813.003906.011719.003906.007812 0 .011718-.003906.015625-.003906h46.847656c8.285156 0 15-6.71875 15-15 0-8.285157-6.714844-15-15-15h-31.863281v-31.855469c0-8.285156-6.714844-15-15-15-8.28125 0-15 6.714844-15 15v31.859375h-.617188c-16.523437 0-32.0625 6.433594-43.742187 18.117187-11.6875 11.6875-18.117188 27.21875-18.117188 43.738282 0 16.523437 6.433594 32.0625 18.117188 43.746094 11.683593 11.683593 27.21875 18.121093 43.742187 18.121093h31.242188c17.566406 0 31.859375 14.292969 31.859375 31.859375s-14.289063 31.859375-31.859375 31.859375h-62.484375c-8.285157 0-15 6.714844-15 15 0 8.285157 6.714843 15 15 15h31.859375v31.863281c0 8.28125 6.71875 15 15 15 8.285156 0 15-6.71875 15-15v-31.863281h.625c34.109375 0 61.859375-27.75 61.859375-61.859375s-27.75-61.859375-61.859375-61.859375zm0 0" fill="#fef4f5"/><g fill="#d5eded"><path d="m271.621094 229.707031h-15.621094v30h15.621094c17.566406 0 31.859375 14.292969 31.859375 31.859375s-14.289063 31.859375-31.859375 31.859375h-15.621094v76.863281c8.28125-.003906 14.996094-6.71875 14.996094-15v-31.863281h.625c34.109375 0 61.859375-27.75 61.859375-61.859375s-27.75-61.859375-61.859375-61.859375zm0 0"/><path d="m256.011719 165.980469h46.847656c8.285156 0 15-6.71875 15-15.003907 0-8.28125-6.714844-14.996093-15-14.996093h-31.863281v-31.859375c0-8.28125-6.714844-14.996094-14.996094-15v76.859375zm0 0"/></g></svg>