<svg height="512pt" viewBox="0 -80 512 512" width="512pt" xmlns="http://www.w3.org/2000/svg"><path d="m55.164062 15c-22.089843 0-40.164062 18.074219-40.164062 40.167969v241c0 22.089843 18.074219 40.164062 40.164062 40.164062h313.300782v-321.332031zm0 0" fill="#d5eded"/><path d="m368.464844 15h-313.300782c-22.089843 0-40.164062 18.074219-40.164062 40.167969v120.5h353.464844zm0 0" fill="#fef4f5"/><path d="m456.832031 0h-401.667969c-30.414062 0-55.164062 24.746094-55.164062 55.167969v241c0 30.417969 24.75 55.164062 55.164062 55.164062h401.667969c30.417969 0 55.167969-24.746093 55.167969-55.164062v-241c0-30.421875-24.75-55.167969-55.167969-55.167969zm-426.832031 296.167969v-241c0-13.878907 11.289062-25.167969 25.164062-25.167969h298.300782v291.332031h-298.300782c-13.875 0-25.164062-11.289062-25.164062-25.164062zm0 0" fill="#008186"/><path d="m30 55.167969c0-13.878907 11.289062-25.167969 25.164062-25.167969h298.300782v145.667969h158.535156v-120.5c0-30.421875-24.75-55.167969-55.167969-55.167969h-401.667969c-30.414062 0-55.164062 24.746094-55.164062 55.167969v120.5h30zm0 0" fill="#00acb3"/><g fill="#663325"><path d="m120.316406 170.285156c8.519532-3.695312 13.65625-12.375 13.65625-25.550781 0-22.8125-15.585937-28.277344-32.296875-28.277344h-31.007812c-4.660157 0-9.15625 2.25-9.15625 6.589844v104.4375c0 3.375 3.53125 6.425781 9.15625 6.425781h34.0625c18.15625 0 32.136719-8.996094 32.136719-34.0625v-3.375c.003906-16.066406-6.746094-22.332031-16.550782-26.1875zm-38.078125-35.511718h17.832031c8.195313 0 13.019532 5.140624 13.019532 13.496093 0 8.195313-4.179688 13.816407-12.855469 13.816407h-17.996094zm33.738281 63.308593c0 12.210938-5.78125 17.515625-15.582031 17.515625h-18.15625v-37.121094h18.15625c9.800781 0 15.582031 4.5 15.582031 17.03125zm0 0"/><path d="m218 116.457031c-5.300781 0-10.441406 1.929688-10.441406 6.429688v75.195312c0 12.53125-6.585938 18.476563-17.675782 18.476563-11.085937 0-17.671874-5.945313-17.671874-18.476563v-75.195312c0-4.5-5.304688-6.429688-10.445313-6.429688-5.300781 0-10.441406 1.929688-10.441406 6.429688v75.195312c0 26.832031 16.871093 36.792969 38.5625 36.792969 21.53125 0 38.5625-9.960938 38.5625-36.792969v-75.195312c0-4.5-5.304688-6.429688-10.449219-6.429688zm0 0"/><path d="m314.5625 116.457031c-3.371094 0-4.820312 1.441407-6.269531 4.179688l-24.582031 46.433593-24.421876-46.433593c-1.445312-2.898438-3.050781-4.179688-6.429687-4.179688-5.621094 0-13.816406 3.53125-13.816406 8.675781 0 .484376.160156 1.285157.484375 2.089844l33.261718 57.523438c.320313.480468.480469 1.285156.480469 2.089844v40.488281c0 4.335937 5.300781 6.585937 10.441407 6.585937 5.304687 0 10.445312-2.25 10.445312-6.585937v-40.488281c0-.804688.320312-1.609376.640625-2.089844l33.101563-57.523438c.480468-.804687.480468-1.605468.480468-2.089844 0-5.144531-8.191406-8.675781-13.816406-8.675781zm0 0"/></g><path d="m432.734375 136.566406c-21.5625 0-39.097656 17.539063-39.097656 39.101563 0 21.558593 17.535156 39.097656 39.097656 39.097656 21.558594 0 39.101563-17.539063 39.101563-39.097656 0-21.5625-17.542969-39.101563-39.101563-39.101563zm0 0" fill="#76e2f8"/><path d="m432.734375 136.566406c-21.5625 0-39.097656 17.539063-39.097656 39.101563h78.195312c0-21.5625-17.539062-39.101563-39.097656-39.101563zm0 0" fill="#a8ebfa"/><path d="m61.511719 227.484375c0 3.375 3.53125 6.425781 9.15625 6.425781h34.0625c18.15625 0 32.136719-8.996094 32.136719-34.0625v-3.375c0-10.339844-2.796876-16.617187-7.402344-20.808594h-67.953125zm20.726562-49.007813h18.15625c9.800781 0 15.582031 4.5 15.582031 17.03125v2.570313c0 12.210937-5.78125 17.515625-15.582031 17.515625h-18.15625zm0 0" fill="#3c1b13"/><path d="m207.558594 198.082031c0 12.53125-6.585938 18.476563-17.675782 18.476563-11.085937 0-17.671874-5.945313-17.671874-18.476563v-22.414062h-20.890626v22.414062c0 26.832031 16.875 36.792969 38.5625 36.792969 21.53125 0 38.566407-9.960938 38.566407-36.792969v-22.414062h-20.890625zm0 0" fill="#3c1b13"/><path d="m267.539062 175.667969 5.25 9.078125c.320313.480468.480469 1.285156.480469 2.089844v40.488281c0 4.335937 5.304688 6.585937 10.441407 6.585937 5.304687 0 10.445312-2.25 10.445312-6.585937v-40.488281c0-.804688.320312-1.609376.640625-2.089844l5.226563-9.078125zm0 0" fill="#3c1b13"/></svg>