<svg height="512pt" viewBox="0 0 512 512" width="512pt" xmlns="http://www.w3.org/2000/svg"><path d="m497 128.535156h-482c-8.285156 0-15 6.714844-15 15v313.296875c0 30.421875 24.746094 55.167969 55.167969 55.167969h401.667969c30.417968 0 55.164062-24.746094 55.164062-55.167969v-313.296875c0-8.285156-6.714844-15-15-15zm0 0" fill="#fef4f5"/><path d="m497 128.535156h-241v383.464844h200.835938c30.417968 0 55.164062-24.746094 55.164062-55.167969v-313.296875c0-8.285156-6.714844-15-15-15zm0 0" fill="#d5eded"/><path d="m456.835938 32.136719h-401.667969c-30.421875 0-55.167969 24.746093-55.167969 55.164062v56.234375c0 8.28125 6.714844 15 15 15h482c8.285156 0 15-6.71875 15-15v-56.234375c0-30.417969-24.746094-55.164062-55.164062-55.164062zm0 0" fill="#ff4949"/><path d="m456.835938 32.136719h-200.835938v126.398437h241c8.285156 0 15-6.71875 15-15v-56.234375c0-30.417969-24.746094-55.164062-55.164062-55.164062zm0 0" fill="#ff2323"/><path d="m304.199219 78.199219c-8.285157 0-15-6.714844-15-15v-48.199219c0-8.285156 6.714843-15 15-15 8.285156 0 15 6.714844 15 15v48.199219c0 8.285156-6.714844 15-15 15zm0 0" fill="#76e2f8"/><path d="m207.800781 78.199219c-8.28125 0-15-6.714844-15-15v-48.199219c0-8.285156 6.71875-15 15-15 8.285157 0 15 6.714844 15 15v48.199219c0 8.285156-6.714843 15-15 15zm0 0" fill="#a8ebfa"/><path d="m111.398438 78.199219c-8.28125 0-15-6.714844-15-15v-48.199219c0-8.285156 6.71875-15 15-15 8.285156 0 15 6.714844 15 15v48.199219c0 8.285156-6.710938 15-15 15zm0 0" fill="#a8ebfa"/><path d="m400.601562 78.199219c-8.285156 0-15-6.714844-15-15v-48.199219c0-8.285156 6.714844-15 15-15 8.285157 0 15 6.714844 15 15v48.199219c0 8.285156-6.714843 15-15 15zm0 0" fill="#76e2f8"/><path d="m369.042969 310.855469-17.441407-21.652344 1.386719-27.769531c.351563-7.042969-4.253906-13.382813-11.0625-15.226563l-26.839843-7.261719-15.203126-23.28125c-3.855468-5.90625-11.3125-8.328124-17.898437-5.8125l-25.984375 9.898438-25.980469-9.898438c-6.59375-2.519531-14.042969-.09375-17.898437 5.8125l-15.203125 23.28125-26.839844 7.261719c-6.808594 1.84375-11.414063 8.183594-11.0625 15.226563l1.386719 27.769531-17.445313 21.652344c-4.425781 5.492187-4.425781 13.328125 0 18.820312l17.445313 21.652344-1.386719 27.769531c-.351563 7.042969 4.253906 13.382813 11.0625 15.226563l26.839844 7.265625 15.203125 23.277344c3.855468 5.90625 11.308594 8.328124 17.898437 5.816406l25.980469-9.898438 25.980469 9.898438c1.746093.664062 3.554687.984375 5.335937.984375 4.953125 0 9.730469-2.460938 12.566406-6.800781l15.203126-23.277344 26.839843-7.265625c6.808594-1.84375 11.414063-8.183594 11.0625-15.226563l-1.386719-27.769531 17.441407-21.652344c4.425781-5.492187 4.425781-13.324219 0-18.820312zm0 0" fill="#ff9f00"/><path d="m281.980469 430.683594c1.746093.664062 3.554687.984375 5.335937.984375 4.953125 0 9.730469-2.457031 12.566406-6.800781l15.203126-23.277344 26.839843-7.265625c6.808594-1.84375 11.414063-8.183594 11.0625-15.226563l-1.386719-27.769531 17.441407-21.652344c4.425781-5.492187 4.425781-13.324219 0-18.820312l-17.441407-21.652344 1.386719-27.769531c.351563-7.042969-4.253906-13.382813-11.0625-15.226563l-26.839843-7.261719-15.203126-23.28125c-3.855468-5.90625-11.3125-8.328124-17.898437-5.8125l-25.984375 9.898438v201.035156zm0 0" fill="#e47500"/></svg>