<svg height="512pt" viewBox="0 -40 512 512" width="512pt" xmlns="http://www.w3.org/2000/svg"><path d="m456.835938 0h-401.667969c-30.421875 0-55.167969 24.746094-55.167969 55.167969v321.332031c0 30.421875 24.746094 55.167969 55.167969 55.167969h401.667969c30.417968 0 55.164062-24.746094 55.164062-55.167969v-321.332031c0-30.421875-24.746094-55.167969-55.164062-55.167969zm0 0" fill="#fef4f5"/><path d="m456.835938 0h-200.835938v431.667969h200.835938c30.417968 0 55.164062-24.746094 55.164062-55.167969v-321.332031c0-30.421875-24.746094-55.167969-55.164062-55.167969zm0 0" fill="#d5eded"/><g fill="#663325"><path d="m416.667969 80.335938h-321.332031c-8.285157 0-15 6.714843-15 15 0 8.28125 6.714843 15 15 15h321.332031c8.28125 0 15-6.71875 15-15 0-8.285157-6.71875-15-15-15zm0 0"/><path d="m111.398438 160.667969c-8.28125 0-15 6.714843-15 15v160.667969c0 8.28125 6.71875 15 15 15 8.285156 0 15-6.71875 15-15v-160.667969c0-8.285157-6.710938-15-15-15zm0 0"/><path d="m256 160.667969c-8.28125 0-15 6.714843-15 15v160.667969c0 8.28125 6.71875 15 15 15 8.285156 0 15-6.71875 15-15v-160.667969c0-8.285157-6.714844-15-15-15zm0 0"/></g><path d="m400.601562 160.667969c-8.285156 0-15 6.714843-15 15v160.667969c0 8.28125 6.714844 15 15 15 8.285157 0 15-6.71875 15-15v-160.667969c0-8.285157-6.714843-15-15-15zm0 0" fill="#3c1b13"/><path d="m191.734375 160.667969h-16.066406c-8.285157 0-15 6.714843-15 15v160.667969c0 8.28125 6.714843 15 15 15h16.066406c8.28125 0 15-6.71875 15-15v-160.667969c0-8.285157-6.714844-15-15-15zm0 0" fill="#663325"/><path d="m336.335938 160.667969h-16.066407c-8.285156 0-15 6.714843-15 15v160.667969c0 8.28125 6.714844 15 15 15h16.066407c8.28125 0 15-6.71875 15-15v-160.667969c0-8.285157-6.71875-15-15-15zm0 0" fill="#3c1b13"/><path d="m416.667969 80.335938h-160.667969v30h160.667969c8.28125 0 15-6.71875 15-15 0-8.285157-6.71875-15-15-15zm0 0" fill="#3c1b13"/><path d="m256 160.667969v190.667969c8.285156 0 15-6.71875 15-15v-160.667969c0-8.285157-6.714844-15-15-15zm0 0" fill="#3c1b13"/></svg>