<svg height="512pt" viewBox="0 0 512 512" width="512pt" xmlns="http://www.w3.org/2000/svg"><path d="m456.832031 152.636719h-120.5c-8.285156 0-15 6.714843-15 15 0 7.667969 5.757813 13.980469 13.183594 14.878906l-36.523437 299.484375h-1.828126c-8.28125 0-15 6.714844-15 15s6.71875 15 15 15h160.667969c30.417969 0 55.164063-24.746094 55.164063-55.164062v-249.035157c0-30.417969-24.746094-55.164062-55.164063-55.164062zm0 0" fill="#00acb3"/><path d="m496.996094 262.96875h-160.664063c-8.285156 0-15-6.71875-15-15 0-8.285156 6.714844-15 15-15h160.664063c8.285156 0 15 6.714844 15 15 0 8.28125-6.714844 15-15 15zm0 0" fill="#3c1b13"/><path d="m400.597656 351.335938h-64.265625c-8.285156 0-15-6.71875-15-15 0-8.285157 6.714844-15 15-15h64.265625c8.285156 0 15 6.714843 15 15 0 8.28125-6.714844 15-15 15zm0 0" fill="#d5eded"/><path d="m400.597656 431.667969h-64.265625c-8.285156 0-15-6.714844-15-15 0-8.285157 6.714844-15 15-15h64.265625c8.285156 0 15 6.714843 15 15 0 8.285156-6.714844 15-15 15zm0 0" fill="#d5eded"/><path d="m336.332031 55.167969c0-22.09375-18.074219-40.167969-40.167969-40.167969h-240.996093c-22.09375 0-40.167969 18.074219-40.167969 40.167969v313.300781h321.332031zm0 0" fill="#fef4f5"/><path d="m336.328125 55.167969c0-22.09375-18.074219-40.167969-40.164063-40.167969h-120.5v353.46875h160.664063zm0 0" fill="#d5eded"/><path d="m296.164062 0h-240.996093c-30.421875 0-55.167969 24.746094-55.167969 55.167969v401.667969c0 30.417968 24.746094 55.164062 55.167969 55.164062h240.996093c30.421876 0 55.167969-24.746094 55.167969-55.164062v-401.667969c0-30.421875-24.75-55.167969-55.167969-55.167969zm-266.164062 55.167969c0-13.878907 11.289062-25.167969 25.167969-25.167969h240.996093c13.878907 0 25.167969 11.289062 25.167969 25.167969v298.300781h-291.332031zm0 0" fill="#00acb3"/><path d="m296.164062 0h-120.5v30h120.5c13.875 0 25.164063 11.289062 25.164063 25.167969v298.300781h-145.664063v158.53125h120.5c30.417969 0 55.164063-24.746094 55.164063-55.164062v-401.667969c0-30.421875-24.746094-55.167969-55.164063-55.167969zm0 0" fill="#008186"/><path d="m175.664062 393.636719c-21.558593 0-39.101562 17.539062-39.101562 39.097656 0 21.5625 17.542969 39.101563 39.101562 39.101563 21.5625 0 39.101563-17.539063 39.101563-39.101563 0-21.558594-17.542969-39.097656-39.101563-39.097656zm0 0" fill="#a8ebfa"/><path d="m175.664062 393.636719v78.199219c21.5625 0 39.101563-17.539063 39.101563-39.101563 0-21.558594-17.542969-39.097656-39.101563-39.097656zm0 0" fill="#76e2f8"/></svg>