<svg height="512pt" viewBox="-40 0 512 512" width="512pt" xmlns="http://www.w3.org/2000/svg"><path d="m276.085938 150.5c-8.285157 0-15-6.714844-15-15v-60.25c0-24.949219-20.300782-45.25-45.25-45.25-24.953126 0-45.25 20.300781-45.25 45.25v60.25c0 8.285156-6.71875 15-15 15-8.285157 0-15-6.714844-15-15v-60.25c0-41.492188 33.753906-75.25 75.25-75.25 41.492187 0 75.25 33.757812 75.25 75.25v60.25c0 8.285156-6.71875 15-15 15zm0 0" fill="#a8ebfa"/><path d="m215.835938 0v30c24.949218 0 45.25 20.300781 45.25 45.25v60.25c0 8.285156 6.714843 15 15 15 8.28125 0 15-6.714844 15-15v-60.25c0-41.492188-33.757813-75.25-75.25-75.25zm0 0" fill="#76e2f8"/><path d="m431.617188 456.191406-14.457032-321.367187c-.359375-8.011719-6.964844-14.324219-14.984375-14.324219h-372.683593c-8.019532 0-14.625 6.3125-14.984376 14.324219l-14.460937 321.441406c-.59375 14.792969 4.671875 28.761719 14.832031 39.335937 10.160156 10.574219 23.90625 16.398438 38.714844 16.398438h324.480469c14.804687 0 28.554687-5.824219 38.714843-16.398438 10.160157-10.574218 15.425782-24.542968 14.828126-39.410156zm0 0" fill="#54e360"/><path d="m431.617188 456.191406-14.457032-321.367187c-.359375-8.011719-6.964844-14.324219-14.984375-14.324219h-186.339843v391.5h162.238281c14.808593 0 28.554687-5.824219 38.714843-16.398438 10.160157-10.574218 15.425782-24.542968 14.828126-39.410156zm0 0" fill="#00ab5e"/><path d="m298.398438 283.914062-120.332032-80.585937c-4.167968-2.792969-9.457031-3.3125-14.089844-1.398437-4.632812 1.921874-8 6.027343-8.972656 10.949218l-28.105468 142.070313c-1.074219 5.425781.925781 11.003906 5.203124 14.511719 4.277344 3.507812 10.140626 4.375 15.25 2.257812l23.253907-9.632812 25 60.363281c1.519531 3.671875 4.441406 6.59375 8.117187 8.117187 1.835938.761719 3.789063 1.140625 5.738282 1.140625 1.953124 0 3.902343-.378906 5.742187-1.140625l74.21875-30.742187c3.675781-1.519531 6.597656-4.441407 8.121094-8.117188 1.519531-3.675781 1.519531-7.804687 0-11.480469l-25.003907-60.363281 23.25-9.628906c5.109376-2.117187 8.640626-6.875 9.1875-12.378906.546876-5.503907-1.980468-10.863281-6.578124-13.941407zm0 0" fill="#fef4f5"/><path d="m298.398438 283.914062-82.5625-55.292968v201.6875l73.589843-30.480469c3.675781-1.523437 6.59375-4.441406 8.117188-8.117187 1.523437-3.679688 1.523437-7.808594 0-11.480469l-25.003907-60.363281 23.25-9.628907c5.113282-2.117187 8.644532-6.875 9.1875-12.382812.546876-5.503907-1.980468-10.863281-6.578124-13.941407zm0 0" fill="#d5eded"/></svg>