<svg height="512pt" viewBox="0 -16 512 512" width="512pt" xmlns="http://www.w3.org/2000/svg"><path d="m440.765625 15h-369.53125c-22.09375 0-40.171875 18.074219-40.171875 40.164062v313.300782h449.871094v-313.300782c0-22.089843-18.078125-40.164062-40.167969-40.164062zm0 0" fill="#fef4f5"/><path d="m480.933594 55.167969c0-22.09375-18.078125-40.167969-40.167969-40.167969h-184.769531v353.464844h224.9375zm0 0" fill="#d5eded"/><path d="m480.933594 383.464844h-449.867188c-8.285156 0-15-6.71875-15-15v-313.300782c0-30.417968 24.75-55.164062 55.167969-55.164062h369.53125c30.421875 0 55.167969 24.746094 55.167969 55.164062v313.300782c0 8.285156-6.71875 15-15 15zm-434.867188-30h419.867188v-298.300782c0-13.875-11.292969-25.164062-25.167969-25.164062h-369.53125c-13.878906 0-25.171875 11.289062-25.171875 25.164062v298.300782zm0 0" fill="#00acb3"/><path d="m440.765625 0h-184.769531v30h184.769531c13.878906 0 25.167969 11.289062 25.167969 25.167969v298.296875h-209.9375v30h224.9375c8.285156 0 15-6.714844 15-15v-313.296875c0-30.421875-24.746094-55.167969-55.167969-55.167969zm0 0" fill="#008186"/><path d="m496.996094 353.464844h-481.996094c-8.285156 0-15 6.714844-15 15v16.066406c0 52.566406 42.765625 95.332031 95.335938 95.332031h321.332031c52.5625 0 95.328125-42.765625 95.328125-95.332031v-16.066406c0-8.285156-6.714844-15-15-15zm0 0" fill="#a8ebfa"/><path d="m497 353.464844h-241v126.398437h160.667969c52.5625 0 95.332031-42.765625 95.332031-95.332031v-16.066406c0-8.285156-6.71875-15-15-15zm0 0" fill="#76e2f8"/><path d="m296.167969 399.53125h-80.332031c-8.285157 0-15-6.714844-15-15s6.714843-15 15-15h80.332031c8.285156 0 15 6.714844 15 15s-6.714844 15-15 15zm0 0" fill="#00acb3"/><path d="m296.167969 369.53125h-40.167969v30h40.167969c8.285156 0 15-6.714844 15-15s-6.714844-15-15-15zm0 0" fill="#008186"/><path d="m335.527344 157.648438-113.605469 113.609374c-12.550781 12.546876-32.898437 12.550782-45.449219 0-12.550781-12.550781-12.550781-32.894531 0-45.445312l113.609375-113.605469c12.546875-12.550781 32.894531-12.550781 45.445313 0 12.546875 12.546875 12.550781 32.894531 0 45.441407zm0 0" fill="#ff4949"/><path d="m210.554688 100.847656c-12.546876-12.546875-32.890626-12.546875-45.441407 0-12.546875 12.546875-12.546875 32.890625 0 45.441406 12.550781 12.546876 32.894531 12.546876 45.441407 0 12.546874-12.550781 12.546874-32.894531 0-45.441406zm0 0" fill="#ff4949"/><g fill="#ff2323"><path d="m346.882812 237.171875c-12.550781-12.546875-32.894531-12.546875-45.441406 0-12.550781 12.546875-12.550781 32.890625 0 45.441406 12.546875 12.546875 32.890625 12.546875 45.441406 0 12.546876-12.550781 12.546876-32.894531 0-45.441406zm0 0"/><path d="m335.527344 112.207031c-12.550782-12.550781-32.898438-12.550781-45.445313 0l-34.082031 34.082031v90.886719l79.527344-79.527343c12.550781-12.546876 12.546875-32.894532 0-45.441407zm0 0"/></g></svg>