<svg height="512pt" viewBox="-80 0 512 512" width="512pt" xmlns="http://www.w3.org/2000/svg"><path d="m336.332031 55.167969c0-22.09375-18.070312-40.167969-40.164062-40.167969h-241c-22.09375 0-40.167969 18.074219-40.167969 40.167969v313.300781h321.332031zm0 0" fill="#fef4f5"/><path d="m336.335938 55.167969c0-22.09375-18.078126-40.167969-40.167969-40.167969h-120.5v353.46875h160.667969zm0 0" fill="#d5eded"/><path d="m296.167969 0h-241c-30.421875 0-55.167969 24.746094-55.167969 55.167969v401.667969c0 30.417968 24.746094 55.164062 55.167969 55.164062h241c30.417969 0 55.164062-24.746094 55.164062-55.164062v-401.667969c0-30.421875-24.746093-55.167969-55.164062-55.167969zm-266.167969 55.167969c0-13.878907 11.289062-25.167969 25.167969-25.167969h241c13.875 0 25.164062 11.289062 25.164062 25.167969v298.300781h-291.332031zm0 0" fill="#00acb3"/><path d="m296.167969 0h-120.5v30h120.5c13.878906 0 25.167969 11.289062 25.167969 25.167969v298.300781h-145.667969v158.53125h120.5c30.417969 0 55.167969-24.746094 55.167969-55.164062v-401.667969c0-30.421875-24.75-55.167969-55.167969-55.167969zm0 0" fill="#008186"/><path d="m233.511719 223.867188c0-25.988282-21.144531-47.132813-47.132813-47.132813h-21.429687c-9.441407 0-17.128907-7.6875-17.128907-17.136719 0-9.445312 7.6875-17.132812 17.132813-17.132812h10.699219.011718.011719 32.121094c8.285156 0 15-6.71875 15-15 0-8.285156-6.714844-15-15-15h-17.132813v-17.128906c0-8.285157-6.714843-15-15-15-8.28125 0-15 6.714843-15 15v17.335937c-23.984374 2.175781-42.84375 22.382813-42.84375 46.925781 0 25.992188 21.144532 47.136719 47.128907 47.136719h21.429687c9.445313 0 17.132813 7.6875 17.132813 17.132813 0 9.449218-7.6875 17.132812-17.132813 17.132812h-42.847656c-8.285156 0-15 6.71875-15 15 0 8.285156 6.714844 15 15 15h17.132812v17.136719c0 8.285156 6.71875 15 15 15 8.285157 0 15-6.714844 15-15v-17.339844c23.988282-2.175781 42.847657-22.386719 42.847657-46.929687zm0 0" fill="#54e360"/><path d="m175.667969 393.636719c-21.558594 0-39.101563 17.539062-39.101563 39.097656 0 21.5625 17.542969 39.101563 39.101563 39.101563 21.558593 0 39.101562-17.539063 39.101562-39.101563 0-21.558594-17.542969-39.097656-39.101562-39.097656zm0 0" fill="#a8ebfa"/><path d="m175.667969 393.636719v78.199219c21.558593 0 39.101562-17.539063 39.101562-39.101563 0-21.558594-17.542969-39.097656-39.101562-39.097656zm0 0" fill="#76e2f8"/><g fill="#00ab5e"><path d="m175.675781 142.46875 32.121094-.003906c8.285156 0 15-6.71875 15-15 0-8.285156-6.714844-15-15-15l-17.132813.003906v-17.132812c0-8.285157-6.714843-15-14.996093-15v62.132812zm0 0"/><path d="m186.378906 176.734375h-10.710937v30h10.710937c9.445313 0 17.132813 7.6875 17.132813 17.132813 0 9.445312-7.6875 17.132812-17.132813 17.132812h-10.710937v62.136719c8.28125-.003907 14.996093-6.71875 14.996093-15v-17.339844c23.988282-2.175781 42.847657-22.386719 42.847657-46.929687 0-25.988282-21.144531-47.132813-47.132813-47.132813zm0 0"/></g></svg>