<svg height="512pt" viewBox="0 0 512 512" width="512pt" xmlns="http://www.w3.org/2000/svg"><path d="m495.84375 417.824219-60.390625-60.390625c-5.859375-5.859375-15.355469-5.859375-21.214844 0-5.855469 5.855468-5.855469 15.355468 0 21.210937l-35.589843 35.59375c-5.859376-5.859375-15.355469-5.855469-21.214844 0-5.859375 5.859375-5.859375 15.355469 0 21.210938l60.390625 60.394531c10.421875 10.417969 24.273437 16.15625 39.011719 16.15625 14.734374 0 28.585937-5.738281 39.003906-16.15625 10.421875-10.417969 16.160156-24.273438 16.160156-39.007812 0-14.738282-5.738281-28.59375-16.15625-39.011719zm0 0" fill="#a8ebfa"/><path d="m495.84375 417.824219-60.390625-60.390625c-5.859375-5.859375-15.355469-5.859375-21.214844 0-5.855469 5.855468-5.855469 15.355468 0 21.210937l-17.796875 17.796875 99.398438 99.398438c10.421875-10.414063 16.160156-24.269532 16.160156-39.003906 0-14.738282-5.738281-28.59375-16.15625-39.011719zm0 0" fill="#76e2f8"/><path d="m409.59375 70.273438c-45.320312-45.316407-105.570312-70.273438-169.660156-70.273438h-.003906c-64.082032 0-124.332032 24.960938-169.652344 70.277344-45.320313 45.320312-70.277344 105.574218-70.277344 169.65625 0 64.089844 24.957031 124.34375 70.273438 169.660156 45.320312 45.316406 105.570312 70.273438 169.660156 70.273438s124.339844-24.957032 169.660156-70.273438c45.3125-45.316406 70.269531-105.570312 70.269531-169.660156s-24.953125-124.339844-70.269531-169.660156zm0 0" fill="#00acb3"/><path d="m409.59375 70.273438c-45.320312-45.316407-105.570312-70.273438-169.660156-70.273438h-.003906c-64.082032 0-124.332032 24.960938-169.652344 70.277344l339.316406 339.316406c45.3125-45.316406 70.269531-105.570312 70.269531-169.660156s-24.953125-124.339844-70.269531-169.660156zm0 0" fill="#008186"/><path d="m364.148438 115.71875c-33.179688-33.179688-77.292969-51.449219-124.214844-51.449219-96.863282 0-175.667969 78.800781-175.667969 175.664063 0 96.863281 78.804687 175.667968 175.667969 175.667968 96.863281 0 175.664062-78.804687 175.664062-175.667968 0-46.921875-18.269531-91.039063-51.449218-124.214844zm0 0" fill="#fef4f5"/><path d="m415.597656 239.933594c0-46.921875-18.269531-91.035156-51.449218-124.214844-33.179688-33.179688-77.292969-51.449219-124.214844-51.449219-48.429688 0-92.347656 19.699219-124.15625 51.507813l248.3125 248.3125c31.808594-31.808594 51.507812-75.726563 51.507812-124.15625zm0 0" fill="#d5eded"/><path d="m297.777344 272.066406c0-25.988281-21.144532-47.132812-47.132813-47.132812h-21.425781c-9.445312 0-17.132812-7.6875-17.132812-17.136719 0-9.445313 7.6875-17.128906 17.132812-17.128906l10.695312-.003907c.007813 0 .011719.003907.015626.003907.007812 0 .011718-.003907.015624-.003907h32.121094c8.28125 0 14.996094-6.71875 14.996094-15 0-8.285156-6.714844-15-15-15h-17.132812v-17.132812c0-8.28125-6.714844-15-15-15-8.28125 0-15 6.71875-15 15v17.339844c-23.984376 2.171875-42.84375 22.382812-42.84375 46.925781 0 25.992187 21.144531 47.136719 47.132812 47.136719h21.425781c9.445313 0 17.132813 7.6875 17.132813 17.132812 0 9.449219-7.6875 17.132813-17.132813 17.132813h-42.851562c-8.28125 0-15 6.714843-15 15 0 8.285156 6.71875 15 15 15h17.136719v17.136719c0 8.28125 6.71875 15 15 15 8.285156 0 15-6.71875 15-15v-17.339844c23.988281-2.175782 42.847656-22.386719 42.847656-46.929688zm0 0" fill="#54e360"/><g fill="#00ab5e"><path d="m239.945312 190.664062h32.121094c8.28125 0 14.996094-6.71875 14.996094-15 0-8.285156-6.714844-15-15-15h-17.132812v-17.132812c0-8.28125-6.714844-14.996094-14.996094-15v62.136719c.003906-.003907.007812-.003907.011718-.003907zm0 0"/><path d="m250.644531 224.933594h-10.710937v30h10.710937c9.445313 0 17.132813 7.6875 17.132813 17.136718 0 9.445313-7.6875 17.132813-17.132813 17.132813h-10.710937v62.132813c8.28125 0 14.996094-6.71875 14.996094-15v-17.339844c23.988281-2.171875 42.847656-22.382813 42.847656-46.925782 0-25.992187-21.144532-47.136718-47.132813-47.136718zm0 0"/></g></svg>