<svg height="512pt" viewBox="0 0 512 512" width="512pt" xmlns="http://www.w3.org/2000/svg"><path d="m456.835938 0h-401.671876c-30.417968 0-55.164062 24.746094-55.164062 55.167969l.00390625 200.832031c0 30.417969 24.74218775 55.167969 55.16015575 55.167969h401.671876c30.417968 0 55.164062-24.75 55.164062-55.167969v-200.832031c0-30.421875-24.746094-55.167969-55.164062-55.167969zm0 0" fill="#ff4949"/><path d="m456.835938 0h-200.835938v311.167969h200.835938c30.417968 0 55.164062-24.75 55.164062-55.167969v-200.832031c0-30.421875-24.746094-55.167969-55.164062-55.167969zm0 0" fill="#ff2323"/><path d="m338.566406 364.203125-120.332031-80.585937c-4.167969-2.789063-9.453125-3.3125-14.089844-1.394532-4.632812 1.921875-8 6.027344-8.972656 10.949219l-28.105469 142.066406c-1.074218 5.425781.925782 11.003907 5.203125 14.507813 4.28125 3.511718 10.140625 4.375 15.25 2.261718l23.253907-9.632812 25 60.363281c1.523437 3.675781 4.441406 6.597657 8.117187 8.117188 1.839844.761719 3.789063 1.144531 5.742187 1.144531 1.949219 0 3.898438-.382812 5.738282-1.144531l74.222656-30.738281c3.675781-1.523438 6.59375-4.441407 8.117188-8.117188 1.519531-3.675781 1.519531-7.804688 0-11.480469l-25.003907-60.363281 23.253907-9.632812c5.109374-2.117188 8.640624-6.875 9.183593-12.378907.546875-5.503906-1.980469-10.863281-6.578125-13.941406zm0 0" fill="#fef4f5"/><path d="m329.59375 480.117188c3.675781-1.519532 6.597656-4.441407 8.117188-8.117188 1.523437-3.675781 1.523437-7.804688 0-11.480469l-25-60.363281 23.25-9.632812c5.109374-2.117188 8.644531-6.875 9.1875-12.378907.542968-5.503906-1.984376-10.863281-6.582032-13.941406l-82.566406-55.292969v201.6875zm0 0" fill="#d5eded"/><path d="m210.554688 64.699219c-12.550782-12.546875-32.894532-12.550781-45.441407 0-12.550781 12.546875-12.546875 32.890625 0 45.441406 12.546875 12.546875 32.894531 12.546875 45.441407 0 12.546874-12.546875 12.546874-32.894531 0-45.441406zm0 0" fill="#fef4f5"/><path d="m221.917969 235.109375c-12.546875 12.550781-32.894531 12.550781-45.441407 0-12.550781-12.550781-12.550781-32.894531 0-45.445313l113.605469-113.605468c12.550781-12.550782 32.894531-12.550782 45.445313 0 12.546875 12.546875 12.550781 32.894531 0 45.441406zm0 0" fill="#fef4f5"/><g fill="#d5eded"><path d="m346.882812 201.023438c-12.546874-12.546876-32.894531-12.546876-45.441406 0-12.546875 12.546874-12.546875 32.894531 0 45.441406s32.894532 12.546875 45.441406 0c12.546876-12.546875 12.546876-32.894532 0-45.441406zm0 0"/><path d="m335.527344 76.058594c-12.550782-12.550782-32.894532-12.550782-45.445313 0l-34.082031 34.082031v90.886719l79.527344-79.527344c12.550781-12.550781 12.546875-32.894531 0-45.441406zm0 0"/></g></svg>