<svg height="512pt" viewBox="0 -16 512.00029 512" width="512pt" xmlns="http://www.w3.org/2000/svg"><path d="m467.429688 212.574219c-2.8125-2.808594-6.621094-4.386719-10.597657-4.386719-.007812 0-.015625 0-.023437 0l-401.664063.679688c-8.273437.015624-14.976562 6.726562-14.976562 15v200.832031c0 30.421875 24.75 55.167969 55.167969 55.167969h321.332031c30.417969 0 55.164062-24.746094 55.164062-55.167969v-201.511719c.003907-3.980469-1.582031-7.800781-4.402343-10.613281zm0 0" fill="#54e360"/><path d="m467.429688 212.574219c-2.8125-2.808594-6.621094-4.386719-10.597657-4.386719-.007812 0-.015625 0-.023437 0l-200.808594.339844v271.339844h160.667969c30.417969 0 55.164062-24.746094 55.164062-55.167969v-201.511719c.003907-3.980469-1.582031-7.800781-4.402343-10.613281zm0 0" fill="#00ab5e"/><path d="m215.835938 329.367188h-80.332032c-8.285156 0-15 6.714843-15 15v120.5c0 8.285156 6.714844 15 15 15h80.332032c8.285156 0 15-6.714844 15-15v-120.5c0-8.285157-6.714844-15-15-15zm0 0" fill="#d55f05"/><path d="m376.5 288.519531h-80.332031c-8.285157 0-15 6.71875-15 15v81.015625c0 8.28125 6.714843 15 15 15h80.332031c8.285156 0 15-6.71875 15-15v-81.015625c0-8.28125-6.714844-15-15-15zm0 0" fill="#76e2f8"/><path d="m511.421875 123.347656-21.101563-73.84375c-7.929687-27.761718-36.753906-49.503906-65.621093-49.503906h-337.398438c-28.871093 0-57.695312 21.742188-65.621093 49.503906l-21.101563 73.84375c-1.292969 4.523438-.386719 9.394532 2.445313 13.152344 2.835937 3.757812 7.269531 5.96875 11.976562 5.96875h482c4.707031 0 9.140625-2.210938 11.972656-5.96875 2.835938-3.757812 3.742188-8.628906 2.449219-13.152344zm0 0" fill="#ff4949"/><path d="m511.421875 123.347656-21.101563-73.84375c-7.929687-27.761718-36.753906-49.503906-65.621093-49.503906h-168.699219v142.46875h241c4.707031 0 9.140625-2.210938 11.976562-5.96875 2.832032-3.757812 3.738282-8.628906 2.445313-13.152344zm0 0" fill="#ff2323"/><path d="m207.800781 112.46875h-96.398437c-8.285156 0-15 6.714844-15 15v48.195312c0 34.851563 28.351562 63.203126 63.199218 63.203126 34.847657 0 63.199219-28.351563 63.199219-63.203126v-48.195312c0-8.285156-6.714843-15-15-15zm0 0" fill="#ff4949"/><path d="m400.597656 112.46875h-96.398437c-8.28125 0-15 6.714844-15 15v48.195312c0 34.851563 28.351562 63.203126 63.203125 63.203126 34.847656 0 63.195312-28.351563 63.195312-63.203126v-48.195312c0-8.285156-6.714844-15-15-15zm0 0" fill="#ff2323"/><path d="m111.402344 112.46875h-96.402344c-8.285156 0-15 6.714844-15 15v48.195312c0 34.851563 28.351562 63.203126 63.199219 63.203126 34.851562 0 63.203125-28.351563 63.203125-63.203126v-48.195312c0-8.285156-6.71875-15-15-15zm0 0" fill="#fef4f5"/><path d="m304.199219 112.46875h-96.398438c-8.285156 0-15 6.714844-15 15v48.195312c0 34.851563 28.351563 63.203126 63.199219 63.203126s63.199219-28.351563 63.199219-63.203126v-48.195312c0-8.285156-6.714844-15-15-15zm0 0" fill="#fef4f5"/><g fill="#d5eded"><path d="m497 112.46875h-96.398438c-8.285156 0-15 6.714844-15 15v48.195312c0 34.851563 28.351563 63.203126 63.199219 63.203126 34.847657 0 63.199219-28.351563 63.199219-63.203126v-48.195312c0-8.285156-6.714844-15-15-15zm0 0"/><path d="m304.199219 112.46875h-48.199219v126.398438c34.847656 0 63.199219-28.351563 63.199219-63.203126v-48.195312c0-8.285156-6.714844-15-15-15zm0 0"/></g></svg>