<svg height="512pt" viewBox="0 0 512.001 512" width="512pt" xmlns="http://www.w3.org/2000/svg"><path d="m497 128.535156h-482c-8.28125 0-15 6.714844-15 15v313.296875c0 30.421875 24.746094 55.167969 55.167969 55.167969h401.667969c30.417968 0 55.164062-24.746094 55.164062-55.167969v-313.296875c0-8.285156-6.714844-15-15-15zm0 0" fill="#fef4f5"/><path d="m497 128.535156h-240.992188v383.464844h200.828126c30.417968 0 55.164062-24.746094 55.164062-55.167969v-313.296875c0-8.285156-6.714844-15-15-15zm0 0" fill="#d5eded"/><path d="m456.835938 0h-401.667969c-30.421875 0-55.167969 24.75-55.167969 55.167969v88.367187c0 8.28125 6.71875 15 15 15h482c8.285156 0 15-6.71875 15-15v-88.367187c0-30.417969-24.746094-55.167969-55.164062-55.167969zm0 0" fill="#00acb3"/><path d="m456.835938 0h-200.828126v158.535156h240.992188c8.285156 0 15-6.71875 15-15v-88.367187c0-30.417969-24.746094-55.167969-55.164062-55.167969zm0 0" fill="#008186"/><path d="m355.34375 278.78125c-8.117188-1.625-16.027344 3.640625-17.648438 11.765625l-.589843 2.941406h-162.207031l-.589844-2.941406c-1.625-8.121094-9.53125-13.390625-17.648438-11.765625-8.125 1.625-13.394531 9.527344-11.769531 17.648438l16.171875 80.855468c4.292969 21.484375 24.824219 38.316406 46.738281 38.316406h96.398438c21.917969 0 42.445312-16.832031 46.742187-38.316406l16.167969-80.855468c1.625-8.121094-3.640625-16.023438-11.765625-17.648438zm0 0" fill="#ff9f00"/><path d="m355.34375 278.78125c-8.117188-1.625-16.027344 3.640625-17.648438 11.765625l-.589843 2.941406h-81.097657v122.113281h48.191407c21.917969 0 42.445312-16.832031 46.742187-38.316406l16.167969-80.855468c1.625-8.121094-3.640625-16.023438-11.765625-17.648438zm0 0" fill="#e47500"/><path d="m416.667969 94.269531c-3.953125 0-7.8125-1.601562-10.613281-4.398437-2.789063-2.792969-4.386719-6.652344-4.386719-10.601563s1.597656-7.820312 4.386719-10.609375c2.800781-2.789062 6.660156-4.390625 10.613281-4.390625 3.949219 0 7.820312 1.601563 10.609375 4.390625 2.789062 2.789063 4.390625 6.660156 4.390625 10.609375s-1.601563 7.808594-4.390625 10.601563c-2.789063 2.796875-6.660156 4.398437-10.609375 4.398437zm0 0" fill="#00ab5e"/><path d="m346.945312 68.660156c-2.796874-2.792968-6.660156-4.390625-10.609374-4.390625-3.949219 0-7.820313 1.597657-10.609376 4.390625-2.789062 2.789063-4.390624 6.660156-4.390624 10.609375s1.601562 7.808594 4.390624 10.597657c2.789063 2.800781 6.660157 4.402343 10.609376 4.402343 3.949218 0 7.8125-1.601562 10.609374-4.402343 2.792969-2.789063 4.390626-6.648438 4.390626-10.597657s-1.597657-7.820312-4.390626-10.609375zm0 0" fill="#e47500"/><path d="m256.007812 94.269531c-3.953124 0-7.820312-1.601562-10.609374-4.398437-2.792969-2.792969-4.390626-6.652344-4.390626-10.601563s1.597657-7.820312 4.390626-10.609375c2.789062-2.789062 6.65625-4.390625 10.609374-4.390625 3.949219 0 7.808594 1.601563 10.597657 4.390625 2.800781 2.789063 4.402343 6.660156 4.402343 10.609375s-1.601562 7.808594-4.402343 10.601563c-2.789063 2.796875-6.648438 4.398437-10.597657 4.398437zm0 0" fill="#ff4949"/><path d="m175.667969 94.265625h-80.332031c-8.285157 0-15-6.714844-15-15 0-8.28125 6.714843-15 15-15h80.332031c8.28125 0 15 6.71875 15 15 0 8.285156-6.71875 15-15 15zm0 0" fill="#fef4f5"/><path d="m175.667969 308.488281c-3.839844 0-7.679688-1.460937-10.605469-4.394531-5.859375-5.855469-5.859375-15.351562 0-21.210938l53.554688-53.554687c5.859374-5.859375 15.355468-5.859375 21.214843 0 5.855469 5.855469 5.855469 15.355469 0 21.210937l-53.558593 53.554688c-2.925782 2.929688-6.765626 4.394531-10.605469 4.394531zm0 0" fill="#a8ebfa"/><path d="m336.335938 308.488281c-3.839844 0-7.675782-1.460937-10.605469-4.394531l-53.558594-53.554688c-5.855469-5.855468-5.855469-15.351562 0-21.210937 5.859375-5.859375 15.355469-5.859375 21.214844 0l53.554687 53.554687c5.859375 5.859376 5.859375 15.355469 0 21.210938-2.929687 2.929688-6.765625 4.394531-10.605468 4.394531zm0 0" fill="#76e2f8"/><path d="m363.109375 308.488281h-214.21875c-8.28125 0-15-6.714843-15-15 0-8.28125 6.71875-15 15-15h214.21875c8.285156 0 15 6.71875 15 15 0 8.285157-6.714844 15-15 15zm0 0" fill="#d55f05"/><path d="m363.109375 308.488281c8.285156 0 15-6.714843 15-15 0-8.28125-6.714844-15-15-15h-107.101563v30zm0 0" fill="#a24603"/><path d="m266.605469 68.660156c-2.789063-2.792968-6.648438-4.390625-10.597657-4.390625v30c3.949219 0 7.808594-1.601562 10.597657-4.402343 2.800781-2.789063 4.402343-6.648438 4.402343-10.597657s-1.601562-7.820312-4.402343-10.609375zm0 0" fill="#ff2323"/></svg>