<svg height="512pt" viewBox="0 0 512 512" width="512pt" xmlns="http://www.w3.org/2000/svg"><path d="m352.398438 417.734375h-192.796876c-25.988281 0-47.132812 21.144531-47.132812 47.132813 0 25.988281 21.144531 47.132812 47.132812 47.132812h192.796876c25.992187 0 47.132812-21.144531 47.132812-47.132812 0-25.988282-21.140625-47.132813-47.132812-47.132813zm0 0" fill="#00acb3"/><path d="m352.398438 512c25.992187 0 47.132812-21.144531 47.132812-47.132812 0-25.988282-21.140625-47.136719-47.132812-47.136719h-96.386719v94.269531zm0 0" fill="#008186"/><path d="m304.199219 353.464844h-96.398438c-8.285156 0-15 6.714844-15 15v64.269531c0 8.285156 6.714844 15 15 15h96.398438c8.285156 0 15-6.714844 15-15v-64.269531c0-8.285156-6.714844-15-15-15zm0 0" fill="#a8ebfa"/><path d="m304.199219 353.464844h-48.1875v94.269531h48.1875c8.285156 0 15-6.71875 15-15v-64.269531c0-8.285156-6.714844-15-15-15zm0 0" fill="#76e2f8"/><path d="m15 55.164062c0-22.089843 18.074219-40.164062 40.167969-40.164062h401.667969c22.089843 0 40.164062 18.074219 40.164062 40.164062v273.136719c0 22.089844-18.074219 40.167969-40.164062 40.167969h-401.667969c-22.09375 0-40.167969-18.078125-40.167969-40.167969zm0 0" fill="#fef4f5"/><path d="m456.835938 15h-200.824219v353.46875h200.824219c22.089843 0 40.164062-18.078125 40.164062-40.167969v-273.136719c0-22.089843-18.074219-40.164062-40.164062-40.164062zm0 0" fill="#d5eded"/><path d="m456.835938 383.46875h-401.667969c-30.421875 0-55.167969-24.75-55.167969-55.167969v-273.136719c0-30.417968 24.746094-55.164062 55.167969-55.164062h401.667969c30.417968 0 55.164062 24.746094 55.164062 55.164062v273.136719c0 30.417969-24.746094 55.167969-55.164062 55.167969zm-401.667969-353.46875c-13.878907 0-25.167969 11.289062-25.167969 25.164062v273.136719c0 13.878907 11.289062 25.167969 25.167969 25.167969h401.667969c13.875 0 25.164062-11.289062 25.164062-25.167969v-273.136719c0-13.875-11.289062-25.164062-25.164062-25.164062zm0 0" fill="#00acb3"/><path d="m456.835938 0h-200.824219v30h200.824219c13.875 0 25.164062 11.289062 25.164062 25.164062v273.136719c0 13.875-11.289062 25.167969-25.164062 25.167969h-200.824219v30h200.824219c30.417968 0 55.164062-24.75 55.164062-55.167969v-273.136719c0-30.417968-24.746094-55.164062-55.164062-55.164062zm0 0" fill="#008186"/><path d="m226.199219 139.59375c-1.445313-4.820312-7.394531-7.066406-13.496094-7.066406-5.945313 0-11.890625 2.246094-13.339844 7.066406l-31.007812 101.066406c-.164063.640625-.324219 1.285156-.324219 1.605469 0 5.140625 7.554688 8.675781 13.179688 8.675781 3.53125 0 6.265624-1.125 7.066406-4.175781l6.105468-21.371094h36.796876l6.105468 21.371094c.804688 3.050781 3.53125 4.175781 7.070313 4.175781 5.621093 0 13.175781-3.695312 13.175781-8.675781 0-.480469-.164062-.964844-.324219-1.605469zm-27.476563 69.414062 13.980469-49.328124 13.976563 49.328124zm0 0" fill="#663325"/><path d="m306.210938 133.488281h-28.441407c-5.464843 0-9.160156 3.054688-9.160156 6.425781v104.601563c0 3.375 3.695313 6.425781 9.160156 6.425781h28.441407c21.207031 0 37.757812-9.960937 37.757812-36.792968v-43.863282c0-26.835937-16.550781-36.796875-37.757812-36.796875zm16.867187 80.660157c0 12.53125-6.265625 18.476562-16.867187 18.476562h-16.710938v-80.820312h16.710938c10.601562 0 16.867187 5.949218 16.867187 18.480468zm0 0" fill="#3c1b13"/></svg>