<svg height="512pt" viewBox="0 0 512.001 512" width="512pt" xmlns="http://www.w3.org/2000/svg"><path d="m507.605469 132.925781c-2.8125-2.8125-6.628907-4.394531-10.605469-4.394531l-482 .003906c-8.28125 0-15 6.714844-15 15v313.296875c0 30.421875 24.746094 55.167969 55.167969 55.167969h401.664062c30.417969 0 55.164063-24.746094 55.164063-55.167969l.003906-313.300781c0-3.976562-1.578125-7.792969-4.394531-10.605469zm0 0" fill="#fef4f5"/><path d="m507.605469 132.925781c-2.8125-2.8125-6.628907-4.394531-10.605469-4.394531l-241 .003906v383.464844h200.832031c30.417969 0 55.164063-24.746094 55.164063-55.167969l.003906-313.300781c0-3.976562-1.578125-7.792969-4.394531-10.605469zm0 0" fill="#d5eded"/><path d="m456.832031 32.136719h-401.664062c-14.691407 0-28.535157 5.75-38.976563 16.191406-10.445312 10.441406-16.19531225 24.28125-16.191406 38.972656v56.234375c0 3.976563 1.578125 7.792969 4.394531 10.605469 2.8125 2.8125 6.628907 4.394531 10.605469 4.394531l482-.003906c8.285156 0 15-6.714844 15-15v-56.230469c-.003906-30.417969-24.753906-55.164062-55.167969-55.164062zm0 0" fill="#ff4949"/><path d="m456.832031 32.136719h-200.832031v126.398437l241-.003906c8.28125 0 15-6.714844 15-15v-56.230469c-.003906-30.417969-24.753906-55.164062-55.167969-55.164062zm0 0" fill="#ff2323"/><path d="m304.199219 78.203125c-8.285157 0-15-6.714844-15-15v-48.203125c0-8.285156 6.714843-15 15-15 8.285156 0 15 6.714844 15 15v48.203125c0 8.285156-6.714844 15-15 15zm0 0" fill="#76e2f8"/><path d="m207.800781 78.203125c-8.285156 0-15-6.714844-15-15v-48.203125c0-8.285156 6.714844-15 15-15 8.28125 0 15 6.714844 15 15v48.203125c0 8.285156-6.71875 15-15 15zm0 0" fill="#a8ebfa"/><path d="m111.398438 78.203125c-8.285157 0-15-6.714844-15-15v-48.203125c0-8.285156 6.714843-15 15-15 8.285156 0 15 6.714844 15 15v48.203125c0 8.285156-6.714844 15-15 15zm0 0" fill="#a8ebfa"/><path d="m400.601562 78.199219c-8.285156 0-15-6.714844-15-15v-48.199219c0-8.285156 6.714844-15 15-15 8.28125 0 15 6.714844 15 15v48.199219c0 8.285156-6.71875 15-15 15zm0 0" fill="#76e2f8"/><path d="m335.523438 286.183594-113.601563 113.609375c-12.554687 12.546875-32.898437 12.550781-45.449219 0-12.550781-12.550781-12.550781-32.894531 0-45.449219l113.609375-113.601562c12.546875-12.550782 32.894531-12.550782 45.441407 0 12.550781 12.546874 12.550781 32.890624 0 45.441406zm0 0" fill="#ff4949"/><path d="m210.554688 229.378906c-12.550782-12.546875-32.894532-12.546875-45.441407 0-12.546875 12.550782-12.546875 32.894532 0 45.441406 12.546875 12.550782 32.890625 12.550782 45.441407 0 12.546874-12.546874 12.546874-32.890624 0-45.441406zm0 0" fill="#ff4949"/><g fill="#ff2323"><path d="m346.878906 365.703125c-12.546875-12.546875-32.890625-12.546875-45.441406 0-12.546875 12.550781-12.546875 32.894531 0 45.441406 12.550781 12.550781 32.894531 12.550781 45.441406 0 12.550782-12.546875 12.550782-32.890625 0-45.441406zm0 0"/><path d="m335.523438 240.738281c-12.546876-12.546875-32.894532-12.550781-45.441407 0l-34.082031 34.082031v90.890626l79.523438-79.527344c12.550781-12.550782 12.550781-32.894532 0-45.445313zm0 0"/></g></svg>