<svg height="512pt" viewBox="0 0 512 512" width="512pt" xmlns="http://www.w3.org/2000/svg"><path d="m497 128.53125h-482c-8.28125 0-15 6.71875-15 15v313.300781c0 30.421875 24.746094 55.167969 55.167969 55.167969h401.667969c30.417968 0 55.164062-24.746094 55.164062-55.167969v-313.300781c0-8.28125-6.714844-15-15-15zm0 0" fill="#fef4f5"/><path d="m497 128.53125h-240.992188v383.46875h200.828126c30.417968 0 55.164062-24.746094 55.164062-55.167969v-313.300781c0-8.28125-6.714844-15-15-15zm0 0" fill="#d5eded"/><path d="m456.835938 0h-401.667969c-30.421875 0-55.167969 24.746094-55.167969 55.167969v88.363281c0 8.285156 6.71875 15 15 15h482c8.285156 0 15-6.714844 15-15v-88.363281c0-30.421875-24.746094-55.167969-55.164062-55.167969zm0 0" fill="#00acb3"/><path d="m456.835938 0h-200.828126v158.53125h240.992188c8.285156 0 15-6.714844 15-15v-88.363281c0-30.421875-24.746094-55.167969-55.164062-55.167969zm0 0" fill="#008186"/><path d="m416.664062 94.269531c-3.949218 0-7.808593-1.601562-10.609374-4.402343-2.789063-2.789063-4.390626-6.648438-4.390626-10.597657 0-3.953125 1.601563-7.820312 4.390626-10.609375 2.800781-2.792968 6.660156-4.390625 10.609374-4.390625 3.949219 0 7.820313 1.597657 10.609376 4.390625 2.792968 2.789063 4.390624 6.660156 4.390624 10.609375s-1.597656 7.808594-4.390624 10.597657c-2.789063 2.800781-6.660157 4.402343-10.609376 4.402343zm0 0" fill="#00ab5e"/><path d="m346.945312 68.65625c-2.800781-2.789062-6.660156-4.386719-10.609374-4.386719-3.949219 0-7.820313 1.597657-10.609376 4.386719-2.789062 2.792969-4.390624 6.660156-4.390624 10.613281 0 3.949219 1.601562 7.808594 4.390624 10.597657 2.789063 2.800781 6.660157 4.402343 10.609376 4.402343 3.949218 0 7.8125-1.601562 10.609374-4.402343 2.789063-2.789063 4.390626-6.648438 4.390626-10.597657 0-3.953125-1.601563-7.820312-4.390626-10.613281zm0 0" fill="#e47500"/><path d="m256.007812 94.269531c-3.953124 0-7.820312-1.601562-10.609374-4.402343-2.792969-2.789063-4.390626-6.648438-4.390626-10.597657 0-3.953125 1.597657-7.820312 4.390626-10.609375 2.789062-2.792968 6.65625-4.390625 10.609374-4.390625 3.945313 0 7.808594 1.597657 10.597657 4.390625 2.800781 2.789063 4.402343 6.660156 4.402343 10.609375s-1.601562 7.808594-4.402343 10.597657c-2.789063 2.800781-6.652344 4.402343-10.597657 4.402343zm0 0" fill="#ff4949"/><path d="m175.667969 94.265625h-80.332031c-8.285157 0-15-6.714844-15-15 0-8.28125 6.714843-15 15-15h80.332031c8.28125 0 15 6.71875 15 15 0 8.285156-6.71875 15-15 15zm0 0" fill="#fef4f5"/><path d="m158.253906 303.132812c-8.285156 0-15-6.714843-15-15v-59.976562h-14.992187c-8.285157 0-15-6.71875-15-15 0-8.285156 6.714843-15 15-15h29.992187c8.28125 0 15 6.714844 15 15v74.976562c0 8.285157-6.71875 15-15 15zm0 0" fill="#a8ebfa"/><path d="m389.890625 244.597656c-8.164063-10.453125-21.148437-16.449218-35.625-16.449218h-196.011719c-8.285156 0-15 6.714843-15 15v82.472656c0 28.945312 23.546875 52.492187 52.484375 52.492187h128.535157c27.585937 0 54.441406-20.96875 61.132812-47.730469l11.804688-47.230468c3.511718-14.046875.84375-28.097656-7.320313-38.554688zm0 0" fill="#ff9f00"/><path d="m389.890625 244.597656c-8.164063-10.453125-21.148437-16.449218-35.625-16.449218h-98.265625v149.964843h68.273438c27.585937 0 54.441406-20.96875 61.132812-47.730469l11.804688-47.230468c3.511718-14.046875.84375-28.097656-7.320313-38.554688zm0 0" fill="#e47500"/><path d="m195.738281 348.109375c-25.988281 0-47.132812 21.148437-47.132812 47.136719 0 25.988281 21.144531 47.132812 47.132812 47.132812s47.132813-21.144531 47.132813-47.132812c0-25.988282-21.140625-47.136719-47.132813-47.136719zm0 0" fill="#00acb3"/><path d="m324.273438 348.109375c-25.992188 0-47.136719 21.148437-47.136719 47.136719 0 25.988281 21.144531 47.132812 47.136719 47.132812 25.988281 0 47.132812-21.144531 47.132812-47.132812 0-25.988282-21.140625-47.136719-47.132812-47.136719zm0 0" fill="#008186"/><path d="m266.605469 68.65625c-2.789063-2.789062-6.652344-4.386719-10.601563-4.386719v30c3.949219 0 7.8125-1.601562 10.601563-4.402343 2.800781-2.789063 4.398437-6.648438 4.398437-10.597657 0-3.953125-1.597656-7.820312-4.398437-10.613281zm0 0" fill="#ff2323"/></svg>