<svg height="512pt" viewBox="0 -80 512 512" width="512pt" xmlns="http://www.w3.org/2000/svg"><path d="m456.832031 336.332031c22.09375 0 40.167969-18.074219 40.167969-40.164062v-241c0-22.09375-18.074219-40.167969-40.167969-40.167969h-313.296875v321.332031zm0 0" fill="#fef4f5"/><path d="m143.535156 336.332031h313.300782c22.089843 0 40.164062-18.074219 40.164062-40.164062v-120.5h-353.464844zm0 0" fill="#d5eded"/><path d="m55.167969 351.332031h401.664062c30.421875 0 55.167969-24.746093 55.167969-55.164062v-241c0-30.417969-24.746094-55.167969-55.167969-55.167969h-401.664062c-30.417969 0-55.167969 24.75-55.167969 55.167969v241c0 30.417969 24.75 55.164062 55.167969 55.164062zm426.832031-296.164062v241c0 13.875-11.289062 25.164062-25.167969 25.164062h-298.296875v-291.332031h298.300782c13.875 0 25.164062 11.289062 25.164062 25.167969zm0 0" fill="#00acb3"/><path d="m482 296.167969c0 13.875-11.289062 25.164062-25.167969 25.164062h-298.296875v-145.664062h-158.535156v120.5c0 30.417969 24.75 55.164062 55.167969 55.164062h401.664062c30.421875 0 55.167969-24.746093 55.167969-55.164062v-120.5h-30zm0 0" fill="#008186"/><path d="m79.265625 214.765625c21.5625 0 39.101563-17.539063 39.101563-39.101563 0-21.558593-17.539063-39.097656-39.101563-39.097656-21.558594 0-39.097656 17.539063-39.097656 39.097656 0 21.5625 17.539062 39.101563 39.097656 39.101563zm0 0" fill="#a8ebfa"/><path d="m79.265625 214.765625c21.5625 0 39.101563-17.539063 39.101563-39.101563h-78.199219c0 21.5625 17.539062 39.101563 39.097656 39.101563zm0 0" fill="#76e2f8"/><path d="m290.464844 123.527344c-1.445313-4.820313-7.390625-7.070313-13.496094-7.070313-5.945312 0-11.890625 2.25-13.335938 7.070313l-31.011718 101.0625c-.160156.648437-.320313 1.285156-.320313 1.609375 0 5.140625 7.550781 8.675781 13.175781 8.675781 3.535157 0 6.269532-1.125 7.070313-4.175781l6.105469-21.371094h36.792968l6.105469 21.371094c.804688 3.050781 3.535157 4.175781 7.070313 4.175781 5.625 0 13.175781-3.695312 13.175781-8.675781 0-.484375-.160156-.964844-.320313-1.609375zm-27.472656 69.414062 13.976562-49.332031 13.980469 49.332031zm0 0" fill="#663325"/><path d="m370.476562 117.421875h-28.4375c-5.464843 0-9.160156 3.054687-9.160156 6.429687v104.601563c0 3.371094 3.695313 6.421875 9.160156 6.421875h28.4375c21.210938 0 37.761719-9.960938 37.761719-36.792969v-43.867187c0-26.828125-16.550781-36.792969-37.761719-36.792969zm16.871094 80.660156c0 12.53125-6.265625 18.476563-16.871094 18.476563h-16.707031v-80.820313h16.707031c10.605469 0 16.871094 5.945313 16.871094 18.476563zm0 0" fill="#663325"/><g fill="#3c1b13"><path d="m290.949219 192.941406h-27.957031l4.894531-17.273437h-20.25l-15.015625 48.925781c-.160156.644531-.320313 1.285156-.320313 1.609375 0 5.136719 7.550781 8.671875 13.175781 8.671875 3.535157 0 6.269532-1.125 7.070313-4.171875l6.105469-21.375h36.792968l6.105469 21.375c.804688 3.046875 3.535157 4.171875 7.070313 4.171875 5.625 0 13.175781-3.695312 13.175781-8.671875 0-.484375-.160156-.964844-.320313-1.609375l-15.011718-48.925781h-20.410156zm0 0"/><path d="m387.347656 175.667969v22.414062c0 12.53125-6.265625 18.476563-16.871094 18.476563h-16.707031v-40.890625h-20.890625v52.785156c0 3.371094 3.695313 6.421875 9.15625 6.421875h28.441406c21.210938 0 37.757813-9.960938 37.757813-36.792969v-22.414062zm0 0"/></g></svg>