<svg height="512pt" viewBox="0 -16 512 512" width="512pt" xmlns="http://www.w3.org/2000/svg"><path d="m456.835938 0h-401.667969c-30.421875 0-55.167969 24.746094-55.167969 55.167969v369.53125c0 30.421875 24.746094 55.167969 55.167969 55.167969h401.667969c30.417968 0 55.164062-24.746094 55.164062-55.167969v-369.53125c0-30.421875-24.746094-55.167969-55.164062-55.167969zm0 0" fill="#d55f05"/><path d="m456.835938 0h-200.835938v479.867188h200.835938c30.417968 0 55.164062-24.746094 55.164062-55.167969v-369.53125c0-30.421875-24.746094-55.167969-55.164062-55.167969zm0 0" fill="#a24603"/><path d="m336.335938 0h-160.667969c-8.285157 0-15 6.714844-15 15v40.167969c0 30.417969 24.746093 55.167969 55.167969 55.167969h80.332031c30.417969 0 55.167969-24.75 55.167969-55.167969v-40.167969c0-8.285156-6.71875-15-15-15zm0 0" fill="#ff9f00"/><path d="m296.164062 369.535156h-80.332031c-30.417969 0-55.167969 24.746094-55.167969 55.167969v40.164063c0 8.285156 6.71875 15 15 15h160.667969c8.285157 0 15-6.714844 15-15v-40.164063c0-30.421875-24.746093-55.167969-55.167969-55.167969zm0 0" fill="#ff9f00"/><path d="m256.003906 279.890625c-49.527344 0-96.089844-19.285156-131.109375-54.308594-5.859375-5.855469-5.859375-15.355469 0-21.210937 5.855469-5.859375 15.355469-5.859375 21.210938 0 29.355469 29.351562 68.382812 45.519531 109.898437 45.519531 41.511719 0 80.535156-16.167969 109.890625-45.519531 5.859375-5.859375 15.351563-5.859375 21.214844 0 5.855469 5.855468 5.855469 15.355468 0 21.210937-35.019531 35.023438-81.582031 54.308594-131.105469 54.308594zm0 0" fill="#663325"/><path d="m351.335938 55.167969v-40.167969c0-8.285156-6.71875-15-15-15h-80.335938v110.335938h40.167969c30.417969 0 55.167969-24.75 55.167969-55.167969zm0 0" fill="#e47500"/><path d="m336.332031 479.867188c8.285157 0 15-6.714844 15-15v-40.164063c0-30.421875-24.746093-55.167969-55.167969-55.167969h-40.164062v110.332032zm0 0" fill="#e47500"/><path d="m387.105469 225.582031c5.859375-5.855469 5.859375-15.355469 0-21.210937-5.859375-5.859375-15.351563-5.859375-21.214844 0-29.351563 29.351562-68.378906 45.519531-109.890625 45.519531v30c49.527344 0 96.089844-19.285156 131.105469-54.308594zm0 0" fill="#3c1b13"/></svg>