<svg height="512pt" viewBox="0 0 512 512" width="512pt" xmlns="http://www.w3.org/2000/svg"><path d="m497 128.53125h-482c-8.28125 0-15 6.71875-15 15v313.300781c0 30.421875 24.746094 55.167969 55.167969 55.167969h401.667969c30.417968 0 55.164062-24.746094 55.164062-55.167969v-313.300781c0-8.28125-6.714844-15-15-15zm0 0" fill="#fef4f5"/><path d="m497 128.53125h-240.992188v383.46875h200.828126c30.417968 0 55.164062-24.746094 55.164062-55.167969v-313.300781c0-8.28125-6.714844-15-15-15zm0 0" fill="#d5eded"/><path d="m456.835938 0h-401.667969c-30.421875 0-55.167969 24.746094-55.167969 55.167969v88.363281c0 8.285156 6.71875 15 15 15h482c8.285156 0 15-6.714844 15-15v-88.363281c0-30.421875-24.746094-55.167969-55.164062-55.167969zm0 0" fill="#00acb3"/><path d="m456.835938 0h-200.828126v158.53125h240.992188c8.285156 0 15-6.714844 15-15v-88.363281c0-30.421875-24.746094-55.167969-55.164062-55.167969zm0 0" fill="#008186"/><path d="m416.664062 94.269531c-3.949218 0-7.808593-1.601562-10.609374-4.402343-2.789063-2.789063-4.390626-6.648438-4.390626-10.597657 0-3.953125 1.601563-7.820312 4.390626-10.609375 2.800781-2.792968 6.660156-4.390625 10.609374-4.390625 3.949219 0 7.820313 1.597657 10.609376 4.390625 2.792968 2.789063 4.390624 6.660156 4.390624 10.609375s-1.597656 7.808594-4.390624 10.597657c-2.789063 2.800781-6.660157 4.402343-10.609376 4.402343zm0 0" fill="#00ab5e"/><path d="m346.945312 68.65625c-2.800781-2.789062-6.660156-4.386719-10.609374-4.386719-3.949219 0-7.820313 1.597657-10.609376 4.386719-2.789062 2.792969-4.390624 6.660156-4.390624 10.613281 0 3.949219 1.601562 7.808594 4.390624 10.597657 2.789063 2.800781 6.660157 4.402343 10.609376 4.402343 3.949218 0 7.8125-1.601562 10.609374-4.402343 2.789063-2.789063 4.390626-6.648438 4.390626-10.597657 0-3.953125-1.601563-7.820312-4.390626-10.613281zm0 0" fill="#e47500"/><path d="m256.007812 94.269531c-3.953124 0-7.820312-1.601562-10.609374-4.402343-2.792969-2.789063-4.390626-6.648438-4.390626-10.597657 0-3.953125 1.597657-7.820312 4.390626-10.609375 2.789062-2.792968 6.65625-4.390625 10.609374-4.390625 3.945313 0 7.808594 1.597657 10.597657 4.390625 2.800781 2.789063 4.402343 6.660156 4.402343 10.609375s-1.601562 7.808594-4.402343 10.597657c-2.789063 2.800781-6.652344 4.402343-10.597657 4.402343zm0 0" fill="#ff4949"/><path d="m175.667969 94.265625h-80.332031c-8.285157 0-15-6.714844-15-15 0-8.28125 6.714843-15 15-15h80.332031c8.28125 0 15 6.71875 15 15 0 8.285156-6.71875 15-15 15zm0 0" fill="#fef4f5"/><path d="m348.015625 310.855469-13.082031-16.238281 1.039062-20.820313c.351563-7.046875-4.253906-13.386719-11.0625-15.230469l-20.128906-5.445312-11.394531-17.457032c-3.855469-5.902343-11.304688-8.324218-17.898438-5.816406l-19.488281 7.421875-19.484375-7.421875c-6.59375-2.511718-14.042969-.089844-17.898437 5.816406l-11.398438 17.457032-20.128906 5.445312c-6.808594 1.84375-11.414063 8.183594-11.0625 15.226563l1.039062 20.824219-13.078125 16.238281c-4.425781 5.492187-4.425781 13.328125 0 18.820312l13.078125 16.234375-1.039062 20.824219c-.351563 7.046875 4.253906 13.382813 11.0625 15.226563l20.125 5.449218 11.402344 17.457032c2.835937 4.34375 7.613281 6.800781 12.5625 6.800781 1.785156 0 3.589843-.320313 5.335937-.984375l19.484375-7.421875 19.484375 7.425781c6.589844 2.507812 14.042969.089844 17.898437-5.820312l11.398438-17.453126 20.128906-5.449218c6.808594-1.84375 11.414063-8.179688 11.0625-15.226563l-1.039062-20.824219 13.078125-16.234374c4.429687-5.496094 4.429687-13.328126.003906-18.824219zm0 0" fill="#ff9f00"/><path d="m348.015625 310.855469-13.082031-16.238281 1.039062-20.820313c.351563-7.046875-4.253906-13.386719-11.0625-15.230469l-20.128906-5.445312-11.394531-17.457032c-3.855469-5.902343-11.304688-8.324218-17.898438-5.816406l-19.480469 7.421875v165.996094l19.480469 7.421875c6.589844 2.507812 14.042969.089844 17.898438-5.816406l11.394531-17.457032 20.128906-5.445312c6.808594-1.847656 11.414063-8.183594 11.0625-15.230469l-1.039062-20.824219 13.082031-16.234374c4.425781-5.496094 4.425781-13.328126 0-18.824219zm0 0" fill="#e47500"/><path d="m266.605469 68.65625c-2.792969-2.789062-6.652344-4.386719-10.601563-4.386719v30c3.949219 0 7.808594-1.601562 10.601563-4.402343 2.796875-2.789063 4.398437-6.648438 4.398437-10.597657 0-3.953125-1.601562-7.820312-4.398437-10.613281zm0 0" fill="#ff2323"/></svg>