<svg height="512pt" viewBox="0 0 512 512" width="512pt" xmlns="http://www.w3.org/2000/svg"><path d="m497 160.667969h-482c-8.285156 0-15 6.714843-15 15v281.164062c0 30.421875 24.746094 55.167969 55.167969 55.167969h401.667969c30.417968 0 55.164062-24.746094 55.164062-55.167969v-281.164062c0-8.285157-6.714844-15-15-15zm0 0" fill="#fef4f5"/><path d="m497 160.667969h-233.367188v351.332031h193.203126c30.417968 0 55.164062-24.746094 55.164062-55.167969v-281.164062c0-8.285157-6.714844-15-15-15zm0 0" fill="#d5eded"/><path d="m263.550781 277.125c-21.210937 0-37.601562 9.960938-37.601562 36.792969v44.828125c0 26.835937 16.390625 36.796875 37.601562 36.796875 21.210938 0 37.761719-9.960938 37.761719-36.796875v-44.828125c-.003906-26.832031-16.550781-36.792969-37.761719-36.792969zm16.871094 81.621094c0 12.695312-6.429687 18.480468-16.871094 18.480468-10.601562 0-16.710937-5.785156-16.710937-18.480468v-44.828125c0-12.691407 6.105468-18.476563 16.710937-18.476563 10.441407 0 16.871094 5.78125 16.871094 18.476563zm0 0" fill="#663325"/><path d="m456.835938 32.136719h-401.667969c-30.421875 0-55.167969 24.746093-55.167969 55.164062v88.367188c0 8.285156 6.714844 15 15 15h482c8.285156 0 15-6.714844 15-15v-88.367188c0-30.417969-24.746094-55.164062-55.164062-55.164062zm0 0" fill="#ff4949"/><path d="m456.835938 32.136719h-193.203126v158.53125h233.367188c8.285156 0 15-6.714844 15-15v-88.367188c0-30.417969-24.746094-55.164062-55.164062-55.164062zm0 0" fill="#ff2323"/><path d="m280.421875 313.917969v44.828125c0 12.660156-6.398437 18.445312-16.789063 18.476562v18.320313c21.167969-.027344 37.679688-9.996094 37.679688-36.796875v-44.828125c0-26.800781-16.511719-36.765625-37.679688-36.792969v18.320312c10.390626.03125 16.789063 5.8125 16.789063 18.472657zm0 0" fill="#3c1b13"/><path d="m304.199219 78.199219c-8.285157 0-15-6.714844-15-15v-48.199219c0-8.285156 6.714843-15 15-15 8.285156 0 15 6.714844 15 15v48.199219c0 8.285156-6.714844 15-15 15zm0 0" fill="#76e2f8"/><path d="m207.800781 78.199219c-8.285156 0-15-6.714844-15-15v-48.199219c0-8.285156 6.714844-15 15-15 8.285157 0 15 6.714844 15 15v48.199219c0 8.285156-6.714843 15-15 15zm0 0" fill="#a8ebfa"/><path d="m111.398438 78.199219c-8.28125 0-15-6.714844-15-15v-48.199219c0-8.285156 6.71875-15 15-15 8.285156 0 15 6.714844 15 15v48.199219c0 8.285156-6.714844 15-15 15zm0 0" fill="#a8ebfa"/><path d="m400.597656 78.199219c-8.28125 0-15-6.714844-15-15v-48.199219c0-8.285156 6.71875-15 15-15 8.285156 0 15 6.714844 15 15v48.199219c0 8.285156-6.710937 15-15 15zm0 0" fill="#76e2f8"/><path d="m197.519531 277.125c-7.550781 0-11.085937 1.605469-16.386719 11.085938l-19.761718 35.988281-19.765625-35.988281c-5.300781-9.480469-8.675781-11.085938-16.230469-11.085938-5.300781 0-10.441406 2.730469-10.441406 10.441406v100.425782c0 4.335937 5.140625 6.585937 10.441406 6.585937 5.144531 0 10.445312-2.25 10.445312-6.585937v-70.378907l18.480469 34.707031c1.765625 3.214844 4.335938 4.175782 6.902344 4.175782 2.574219 0 5.304687-.960938 7.070313-4.175782l18.800781-33.421874v69.09375c0 4.335937 5.144531 6.585937 10.441406 6.585937 5.144531 0 10.445313-2.25 10.445313-6.585937v-100.425782c.003906-7.710937-5.136719-10.441406-10.441407-10.441406zm0 0" fill="#663325"/><path d="m386.621094 277.125c-5.300782 0-10.441406 1.925781-10.441406 6.425781v64.59375l-31.011719-59.933593c-4.980469-9.480469-8.03125-11.085938-15.589844-11.085938-5.296875 0-10.441406 2.089844-10.441406 6.585938v104.28125c0 4.335937 5.144531 6.585937 10.441406 6.585937 5.148437 0 10.445313-2.25 10.445313-6.585937v-64.59375l34.546874 64.59375c2.730469 4.976562 7.070313 6.585937 12.050782 6.585937 5.144531 0 10.445312-2.25 10.445312-6.585937v-104.441407c0-4.5-5.304687-6.425781-10.445312-6.425781zm0 0" fill="#3c1b13"/></svg>