<svg height="512pt" viewBox="-64 0 512 512" width="512pt" xmlns="http://www.w3.org/2000/svg"><path d="m318.558594 385.601562h-253.660156c-30.417969 0-55.167969 24.746094-55.167969 55.164063v56.234375c0 8.285156 6.71875 15 15 15h333.996093c8.285157 0 15-6.714844 15-15v-56.234375c0-30.417969-24.75-55.164063-55.167968-55.164063zm0 0" fill="#ff4949"/><path d="m358.726562 512c8.285157 0 15-6.714844 15-15v-56.234375c0-30.417969-24.75-55.164063-55.167968-55.164063h-126.828125v126.398438zm0 0" fill="#ff2323"/><path d="m191.730469 512c-8.285157 0-15-6.714844-15-15v-96.398438c0-8.285156 6.714843-15 15-15 8.285156 0 15 6.714844 15 15v96.398438c0 8.285156-6.714844 15-15 15zm0 0" fill="#fef4f5"/><path d="m191.730469 385.601562v126.398438c8.285156 0 15-6.714844 15-15v-96.398438c0-8.285156-6.714844-15-15-15zm0 0" fill="#d5eded"/><path d="m256 0h-128.535156c-26.453125 0-50.601563 10.902344-68.003906 30.703125-17.875 20.347656-27.328126 48.25-27.328126 80.695313v16.0625c0 8.285156 6.714844 15 15 15 8.285157 0 15-6.714844 15-15l259.195313.003906c0 8.28125 6.714844 15 15 15s15-6.714844 15-15l.003906-32.132813c0-52.566406-42.765625-95.332031-95.332031-95.332031zm0 0" fill="#ff4949"/><path d="m336.328125 142.464844c8.285156 0 15-6.714844 15-15l.003906-32.132813c0-52.566406-42.765625-95.332031-95.332031-95.332031h-64.269531v127.464844h129.597656c0 8.28125 6.71875 15 15 15zm0 0" fill="#ff2323"/><path d="m336.328125 176.734375c-8.28125 0-15 6.714844-15 15h-259.195313c0-8.285156-6.714843-15-15-15-8.285156 0-15 6.714844-15 15v64.265625c0 88.003906 71.59375 159.601562 159.597657 159.601562 88.003906 0 159.597656-71.597656 159.597656-159.601562v-64.265625c0-8.285156-6.714844-15-15-15zm0 0" fill="#fdd1a3"/><path d="m191.730469 415.601562c88.003906 0 159.597656-71.597656 159.597656-159.601562v-64.265625c0-8.285156-6.714844-15-15-15-8.28125 0-15 6.714844-15 15h-129.597656zm0 0" fill="#f5a86c"/><path d="m288.132812 96.398438h-192.800781c-52.566406 0-95.332031 42.765624-95.332031 95.335937 0 8.28125 6.71875 15 15 15h353.464844c8.285156 0 15-6.71875 15-15 0-52.570313-42.765625-95.335937-95.332032-95.335937zm0 0" fill="#ff9f00"/><path d="m143.535156 254.9375c-3.945312 0-7.816406-1.597656-10.605468-4.398438-2.792969-2.789062-4.394532-6.648437-4.394532-10.601562 0-3.949219 1.601563-7.820312 4.394532-10.609375 2.789062-2.789063 6.660156-4.390625 10.605468-4.390625 3.953125 0 7.8125 1.601562 10.601563 4.390625 2.800781 2.800781 4.398437 6.660156 4.398437 10.609375 0 3.941406-1.597656 7.8125-4.398437 10.601562-2.789063 2.800782-6.660157 4.398438-10.601563 4.398438zm0 0" fill="#663325"/><path d="m239.925781 254.9375c-3.9375 0-7.808593-1.597656-10.597656-4.398438-2.792969-2.789062-4.402344-6.648437-4.402344-10.601562 0-3.949219 1.609375-7.820312 4.402344-10.609375 2.789063-2.789063 6.648437-4.390625 10.597656-4.390625s7.820313 1.601562 10.609375 4.390625c2.792969 2.789063 4.390625 6.660156 4.390625 10.609375 0 3.953125-1.597656 7.8125-4.390625 10.601562-2.789062 2.800782-6.65625 4.398438-10.609375 4.398438zm0 0" fill="#3c1b13"/><path d="m191.730469 351.332031c-28.207031 0-54.511719-15.179687-68.648438-39.613281-4.148437-7.167969-1.695312-16.347656 5.472657-20.492188 7.171874-4.152343 16.347656-1.699218 20.496093 5.46875 8.792969 15.199219 25.144531 24.640626 42.679688 24.640626 17.535156 0 33.890625-9.445313 42.683593-24.644532 4.148438-7.171875 13.324219-9.621094 20.496094-5.472656s9.621094 13.328125 5.472656 20.496094c-14.140624 24.4375-40.449218 39.617187-68.652343 39.617187zm0 0" fill="#663325"/><path d="m254.90625 291.21875c-7.167969-4.148438-16.347656-1.699219-20.492188 5.472656-8.796874 15.199219-25.148437 24.644532-42.683593 24.644532v30c28.203125 0 54.511719-15.183594 68.648437-39.621094 4.148438-7.167969 1.699219-16.347656-5.472656-20.496094zm0 0" fill="#3c1b13"/><path d="m383.464844 191.734375c0-52.570313-42.765625-95.335937-95.332032-95.335937h-96.402343v110.335937h176.734375c8.285156 0 15-6.714844 15-15zm0 0" fill="#e47500"/></svg>